<svg width="22" height="22" viewBox="0 0 22 22" fill="none" xmlns="http://www.w3.org/2000/svg">
<path fill-rule="evenodd" clip-rule="evenodd" d="M21.5 11C21.5 16.799 16.799 21.5 11 21.5C5.20101 21.5 0.5 16.799 0.5 11C0.5 5.20101 5.20101 0.5 11 0.5C16.799 0.5 21.5 5.20101 21.5 11ZM11.2353 7.9496C10.2949 8.34292 8.41539 9.15699 5.59682 10.3918C5.13913 10.5748 4.89937 10.7539 4.87754 10.929C4.84066 11.2248 5.20913 11.3413 5.7109 11.5C5.77915 11.5216 5.84986 11.5439 5.92236 11.5676C6.41602 11.729 7.08008 11.9178 7.42529 11.9253C7.73844 11.9321 8.08794 11.8023 8.4738 11.5358C11.1073 9.74827 12.4667 8.84476 12.552 8.82528C12.6122 8.81154 12.6957 8.79426 12.7522 8.84479C12.8088 8.89531 12.8032 8.991 12.7972 9.01667C12.7607 9.17315 11.3143 10.5253 10.5658 11.2251C10.3325 11.4432 10.1669 11.5979 10.1331 11.6333C10.0573 11.7124 9.98006 11.7873 9.90582 11.8593C9.4472 12.3039 9.10328 12.6372 9.92486 13.1817C10.3197 13.4433 10.6356 13.6596 10.9508 13.8755C11.295 14.1112 11.6383 14.3463 12.0826 14.6391C12.1957 14.7137 12.3038 14.7912 12.4091 14.8666C12.8097 15.1538 13.1696 15.4118 13.6142 15.3707C13.8725 15.3468 14.1394 15.1025 14.2749 14.3739C14.5952 12.6521 15.2248 8.92144 15.3703 7.38412C15.3831 7.24944 15.367 7.07706 15.3542 7.00139C15.3413 6.92572 15.3144 6.81791 15.2166 6.7381C15.1007 6.64358 14.9219 6.62365 14.8419 6.62507C14.4783 6.63151 13.9203 6.82659 11.2353 7.9496Z" fill="#FFA703"/>
</svg>
