<svg width="32" height="33" viewBox="0 0 32 33" fill="none" xmlns="http://www.w3.org/2000/svg">
<rect y="0.8125" width="32" height="32" rx="16" fill="url(#paint0_linear_1_510)"/>
<g filter="url(#filter0_i_1_510)">
<rect y="0.8125" width="32" height="32" rx="16" fill="white" fill-opacity="0.01"/>
</g>
<path d="M17.4291 10.8145V23.2412C17.4291 23.3198 17.4934 23.3841 17.572 23.3841H18.6434C18.722 23.3841 18.7863 23.3198 18.7863 23.2412V12.4341L22.0541 15.0109C22.147 15.0841 22.2863 15.018 22.2863 14.8984V13.6037C22.2863 13.5162 22.247 13.4341 22.1773 13.3787L18.3541 10.3645C17.9791 10.0698 17.4291 10.3359 17.4291 10.8145ZM13.2148 10.3841V21.1912L9.94699 18.6145C9.85413 18.5412 9.71484 18.6073 9.71484 18.727V20.0216C9.71484 20.1091 9.75413 20.1912 9.82377 20.2466L13.647 23.2609C14.022 23.5555 14.572 23.2894 14.572 22.8127V10.3841C14.572 10.3055 14.5077 10.2412 14.4291 10.2412H13.3577C13.2791 10.2412 13.2148 10.3055 13.2148 10.3841Z" fill="#39D0D8"/>
<defs>
<filter id="filter0_i_1_510" x="0" y="0.8125" width="32" height="32" filterUnits="userSpaceOnUse" color-interpolation-filters="sRGB">
<feFlood flood-opacity="0" result="BackgroundImageFix"/>
<feBlend mode="normal" in="SourceGraphic" in2="BackgroundImageFix" result="shape"/>
<feColorMatrix in="SourceAlpha" type="matrix" values="0 0 0 0 0 0 0 0 0 0 0 0 0 0 0 0 0 0 127 0" result="hardAlpha"/>
<feMorphology radius="1.5" operator="erode" in="SourceAlpha" result="effect1_innerShadow_1_510"/>
<feOffset/>
<feComposite in2="hardAlpha" operator="arithmetic" k2="-1" k3="1"/>
<feColorMatrix type="matrix" values="0 0 0 0 0.345098 0 0 0 0 0.952941 0 0 0 0 0.803922 0 0 0 0.7 0"/>
<feBlend mode="normal" in2="shape" result="effect1_innerShadow_1_510"/>
</filter>
<linearGradient id="paint0_linear_1_510" x1="0" y1="0.8125" x2="12.4603" y2="39.1613" gradientUnits="userSpaceOnUse">
<stop offset="0.287" stop-color="#3BD0D8" stop-opacity="0.2"/>
<stop offset="1" stop-color="#3BD0D8" stop-opacity="0"/>
</linearGradient>
</defs>
</svg>
