<svg width="56" height="56" viewBox="0 0 56 56" fill="none" xmlns="http://www.w3.org/2000/svg">
<path d="M34.9091 14.2743C34.5586 15.511 34.1365 17.005 33.7072 18.4919C31.375 26.5483 29.0357 34.5975 26.7035 42.6538C26.2814 44.1121 26.124 44.205 24.6646 43.7761C23.7632 43.5116 22.869 43.2042 21.9604 42.9898C21.0876 42.7825 20.9088 42.3679 21.1592 41.5029C23.5844 33.2035 25.9666 24.897 28.3632 16.5904C28.7209 15.3466 29.0929 14.1027 29.4578 12.8589C29.6652 12.1583 30.0158 11.8224 30.817 12.094C31.9474 12.48 33.1135 12.7731 34.2652 13.1091C34.7159 13.2378 35.045 13.4594 34.9163 14.2743H34.9091Z" fill="#1C1C1C"/>
<path d="M40.418 28.028C40.1819 27.8064 40.0245 27.6492 39.8528 27.5062C38.3075 26.148 36.7766 24.7683 35.2027 23.4387C34.4945 22.8454 34.4086 22.345 35.1025 21.673C35.8966 20.901 36.6407 20.0646 37.3847 19.2425C37.8998 18.6778 38.3862 18.6349 38.9657 19.1782C41.7987 21.8517 44.6388 24.511 47.4932 27.1559C48.1299 27.7492 48.1943 28.2353 47.529 28.8501C44.6746 31.4951 41.8344 34.1614 39.0086 36.835C38.4005 37.4069 37.8998 37.3854 37.3489 36.7778C36.5834 35.9271 35.8108 35.0836 35.0095 34.2687C34.4444 33.6896 34.5016 33.2321 35.0954 32.7174C36.6836 31.3521 38.2431 29.9581 39.817 28.5785C40.0102 28.4141 40.1962 28.2353 40.418 28.0352V28.028Z" fill="#1C1C1C"/>
<path d="M17.8041 18.7923C18.1761 18.7351 18.3907 18.9996 18.6125 19.2355C19.3994 20.0718 20.1577 20.9225 20.959 21.7374C21.5599 22.3451 21.4955 22.824 20.8588 23.3601C19.2921 24.6969 17.7826 26.098 16.2016 27.4133C15.5864 27.928 15.6794 28.1782 16.2302 28.6429C17.7111 29.8796 19.1419 31.1663 20.587 32.4459C21.6959 33.4252 21.6959 33.4896 20.6514 34.6047C19.9789 35.3196 19.2993 36.0273 18.6483 36.7636C18.1046 37.3783 17.5966 37.4212 16.9885 36.8494C14.1627 34.183 11.3226 31.5166 8.47529 28.8716C7.80997 28.2569 7.8672 27.7422 8.49676 27.156C11.344 24.5039 14.1842 21.8447 17.0171 19.1854C17.2389 18.9781 17.4535 18.7851 17.7898 18.8066L17.8041 18.7923Z" fill="#1C1C1C"/>
</svg>
