<svg width="24" height="24" viewBox="0 0 24 24" fill="none" xmlns="http://www.w3.org/2000/svg">
<path d="M22.1681 12.6188C21.9037 10.6068 21.272 8.72775 20.0967 7.05908C19.4943 6.2026 18.723 5.55654 17.691 5.28704C17.4229 5.2169 17.1401 5.19106 16.8646 5.14307H16.5818C16.2659 5.19475 15.9464 5.23167 15.6342 5.30181C14.9474 5.45686 14.3157 5.74482 13.7427 6.14722C13.3093 6.44994 12.8392 6.605 12.314 6.58654C11.9541 6.57546 11.5868 6.60869 11.2342 6.54593C10.9404 6.49424 10.6355 6.3798 10.3858 6.21736C9.45657 5.60453 8.46858 5.19106 7.34103 5.16522C7.31532 5.16522 7.28961 5.15045 7.2639 5.14307H7.1831C6.96641 5.17629 6.74604 5.19475 6.52934 5.23905C5.47158 5.44948 4.66356 6.05862 4.02817 6.90403C3.13567 8.08538 2.55904 9.42179 2.18809 10.8505C1.63717 12.9622 1.5527 15.096 2.00812 17.2372C2.06689 17.5215 2.18442 17.8057 2.335 18.0531C2.7941 18.8247 3.75638 19.0978 4.51297 18.6216C5.06022 18.2783 5.56707 17.8611 6.03719 17.4181C6.61015 16.8754 7.13168 16.2774 7.66424 15.6904C7.98377 15.336 8.36574 15.1477 8.84321 15.1477C10.9587 15.1477 13.0743 15.1477 15.1861 15.1477C15.6489 15.1477 16.0272 15.3249 16.3321 15.6756C17.1107 16.5764 17.9077 17.4513 18.8442 18.1934C19.0316 18.341 19.2299 18.485 19.4392 18.6031C20.317 19.1052 21.3087 18.8062 21.7715 17.9017C22.0212 17.4144 22.091 16.8791 22.1645 16.3475C22.2159 15.9783 22.2489 15.6018 22.2857 15.2289V13.7374C22.2453 13.3646 22.2122 12.9917 22.1645 12.6188H22.1681ZM9.56675 11.1532C9.54104 11.1975 9.44922 11.2271 9.38678 11.2271C8.9791 11.2344 8.57142 11.2271 8.12701 11.2271C8.12701 11.4264 8.12701 11.6184 8.12701 11.8103C8.12701 12.0245 8.13436 12.2423 8.12334 12.4564C8.12334 12.5192 8.08661 12.6115 8.03886 12.6373C7.64955 12.844 7.25289 12.881 6.84888 12.6779C6.74237 12.6262 6.69462 12.5487 6.69829 12.4232C6.70564 12.0355 6.69829 11.6479 6.69829 11.2307C6.31632 11.2307 5.95271 11.216 5.58543 11.2344C5.3871 11.2455 5.29161 11.168 5.23652 10.9908C5.12633 10.6474 5.12266 10.3078 5.25121 9.96448C5.29895 9.83527 5.36507 9.7762 5.51198 9.77989C5.91231 9.79097 6.31265 9.78358 6.74237 9.78358C6.74237 9.35534 6.74971 8.95294 6.73869 8.55054C6.73502 8.39549 6.79379 8.33642 6.92601 8.2995C7.30063 8.19613 7.66424 8.21829 8.03152 8.33642C8.14905 8.37334 8.1821 8.4361 8.1821 8.55793C8.17109 8.89387 8.17476 9.22982 8.17476 9.56577C8.17476 9.63222 8.17843 9.69498 8.18578 9.78358C8.57877 9.78358 8.95707 9.79097 9.33536 9.78358C9.47126 9.77989 9.53737 9.83158 9.59981 9.94602C9.83119 10.3595 9.7761 10.7619 9.56308 11.1532H9.56675ZM15.9905 7.46148C16.6038 7.4541 17.107 7.94879 17.1107 8.56531C17.1144 9.1929 16.6185 9.69867 15.9978 9.69867C15.3771 9.69867 14.8923 9.20398 14.8886 8.58377C14.8886 7.96356 15.3698 7.46886 15.9905 7.46148V7.46148ZM15.9905 12.7776C15.3698 12.7776 14.8886 12.2829 14.8886 11.659C14.8886 11.0277 15.3845 10.5404 16.0162 10.5478C16.6295 10.5552 17.1144 11.0535 17.1107 11.6774C17.107 12.294 16.6112 12.7813 15.9905 12.7813V12.7776ZM18.7745 11.3563C18.1538 11.3563 17.6616 10.8468 17.6653 10.2192C17.6726 9.60269 18.1758 9.10799 18.7892 9.11907C19.4062 9.12645 19.891 9.62484 19.8873 10.2451C19.8873 10.8616 19.3878 11.36 18.7745 11.3563Z" fill="#FFA703"/>
</svg>
