<svg width="24" height="24" viewBox="0 0 24 24" fill="none" xmlns="http://www.w3.org/2000/svg">
<path d="M6.38577 11.494C6.60866 11.494 6.78759 11.6683 6.78759 11.8854V11.9893H7.0042C7.0042 11.9893 7.36208 10.3169 7.5159 9.58011L7.02932 9.57399V7.71818C7.02932 7.71818 9.87663 12.8576 11.2987 15.5328H12.4226L12.4979 16.1167H17.797C17.819 15.8935 17.8347 15.7223 17.8535 15.4961H19.8469V8.99615H14.5447L14.529 13.5455C14.529 13.5455 11.0225 8.8494 9.49364 6.77346C8.67743 5.66669 7.86122 4.56299 7.02304 3.42871C6.44228 3.77419 5.89918 4.09521 5.36551 4.41318C5.54445 4.80758 5.80814 5.13472 5.8207 5.47102C5.87093 6.8346 5.84268 8.19818 5.84268 9.57705L5.24622 9.58317C5.42829 10.3597 5.61037 11.2219 5.77361 11.9924H5.98394V11.8884C5.98394 11.6713 6.16288 11.4971 6.38577 11.4971V11.494ZM16.1206 10.4117H18.3526V12.3317H16.1206V10.4117ZM12.5356 12.0871C12.8024 12.4418 13.019 12.7292 13.267 13.0563C12.7742 13.3345 12.3064 13.6005 11.8387 13.8635C11.8041 13.8268 11.7727 13.7931 11.7382 13.7565C11.9925 13.2275 12.2436 12.6986 12.5387 12.0841L12.5356 12.0871ZM11.6723 11.6591C11.4588 12.1636 11.2422 12.6711 11.0005 13.2428C10.809 12.9187 10.6614 12.665 10.4919 12.3745C10.8561 12.1147 11.214 11.8609 11.5718 11.6071C11.6064 11.6255 11.6378 11.6438 11.6723 11.6622V11.6591ZM10.9126 9.98674C11.1292 10.2619 11.2956 10.4729 11.5122 10.748C11.1166 10.9926 10.7776 11.2066 10.3004 11.5001C10.5296 10.9345 10.6991 10.5095 10.9126 9.98674V9.98674ZM10.1874 9.67489C10.0336 10.0968 9.87977 10.5218 9.68828 11.0446C9.51248 10.7174 9.38063 10.4729 9.23308 10.1946C9.53131 9.9898 9.80443 9.8033 10.0775 9.6168C10.1152 9.63514 10.1497 9.65654 10.1874 9.67489V9.67489ZM9.29901 7.75793C9.54073 8.10035 9.71339 8.33882 9.92372 8.63539C9.60352 8.83106 9.31784 9.00533 8.97252 9.21934C9.0824 8.72405 9.17971 8.29602 9.29901 7.75793V7.75793ZM8.42629 8.60787C8.20026 8.20736 8.05586 7.9536 7.89889 7.67843C8.14376 7.52251 8.3792 7.3727 8.71824 7.15563C8.61779 7.65703 8.53617 8.05755 8.42315 8.60787H8.42629ZM7.72937 5.3579C7.94598 5.72784 8.09981 5.98772 8.28188 6.29957C8.01505 6.47078 7.77018 6.6267 7.40917 6.85906C7.52218 6.32097 7.61008 5.90517 7.72624 5.35484L7.72937 5.3579ZM7.13605 4.64248C7.04501 5.1072 6.96967 5.49548 6.86608 6.02441C6.66516 5.65141 6.53331 5.40376 6.37635 5.11026C6.64319 4.94516 6.85038 4.81675 7.13605 4.63942V4.64248ZM6.41402 6.36989C6.41402 6.36989 6.46739 8.49781 6.50506 9.58622C6.45483 9.58622 6.4046 9.58622 6.35438 9.58622C6.35438 8.50392 6.41402 7.45219 6.41402 6.36989V6.36989Z" fill="#FFA703"/>
<path d="M20.525 17.7341C20.4654 17.0737 20.0918 16.7894 19.4169 16.7772C18.698 16.7649 17.9791 16.7711 17.2602 16.7711C15.3201 16.7711 13.38 16.768 11.44 16.7772C10.5045 16.7833 10.0556 17.2358 10.0524 18.1285C10.0524 18.5138 10.0524 18.899 10.0524 19.2842C10.0524 20.1678 10.4291 20.55 11.3615 20.5591C12.6894 20.5744 14.0205 20.5622 15.3515 20.5622C15.3515 20.5622 15.3515 20.5652 15.3515 20.5683C16.6983 20.5683 18.0481 20.5775 19.3949 20.5652C20.0573 20.5591 20.4591 20.2503 20.5219 19.6113C20.5847 18.9907 20.5878 18.3578 20.5313 17.7372L20.525 17.7341ZM19.0872 19.0671H11.5624V18.263H19.0841V19.0671H19.0872Z" fill="#FFA703"/>
<path d="M8.45141 17.2235C8.68058 17.1959 8.86894 17.1745 9.03532 17.1562V16.4561H3.43173V17.1776C3.67345 17.1929 3.86495 17.2021 4.07214 17.2143V18.1009C3.83041 18.1284 3.62636 18.1529 3.42859 18.1743V18.8408H9.05101V18.1621C8.84068 18.1407 8.65233 18.1223 8.45141 18.104V17.2235V17.2235Z" fill="#FFA703"/>
<path d="M4.21968 16.288L5.62293 15.0101C5.83954 15.1568 6.10324 15.2424 6.38577 15.2424C6.59924 15.2424 6.80015 15.1935 6.97909 15.1048L8.27561 16.285H9.02275L7.39348 14.7899C7.59753 14.5606 7.71996 14.2641 7.71996 13.9369C7.71996 13.7198 7.54102 13.5456 7.31813 13.5456C7.09525 13.5456 6.91631 13.7198 6.91631 13.9369C6.91631 14.2243 6.67772 14.4567 6.38263 14.4567C6.08754 14.4567 5.84896 14.2243 5.84896 13.9369C5.84896 13.6495 6.08754 13.4172 6.38263 13.4172H6.78446V11.9863H5.98081V12.6956C5.44085 12.8607 5.04531 13.356 5.04531 13.9369C5.04531 14.1937 5.12379 14.4353 5.25564 14.6371L3.47253 16.2911H4.21968V16.288Z" fill="#FFA703"/>
<path d="M6.78766 11.8854C6.78766 11.6684 6.60872 11.4941 6.38583 11.4941C6.16295 11.4941 5.98401 11.6684 5.98401 11.8854V11.9893H6.78766V11.8854V11.8854Z" fill="#FFA703"/>
</svg>
