<svg width="24" height="24" viewBox="0 0 24 24" fill="none" xmlns="http://www.w3.org/2000/svg">
<path d="M6.74998 12.6165C5.39062 12.9747 3.48505 13.4379 3.42982 13.4934C3.37458 13.549 5.1973 10.9183 6.28663 9.38685C6.74998 8.72918 7.56621 8.40189 8.35483 8.56554L9.14345 8.72918C8.10935 9.98894 7.29311 11.2765 6.74998 12.6165ZM15.256 14.8767C14.0316 15.9172 12.7244 16.7108 11.3651 17.2573C11.0122 18.6251 10.5212 20.5425 10.4936 20.5703C10.4384 20.6259 13.0528 18.7918 14.6024 17.7235C15.256 17.2573 15.5813 16.436 15.4186 15.6424L15.256 14.8767V14.8767ZM20.5523 3.44312C20.5523 3.44312 18.8124 3.25168 16.3361 4.26443L19.7361 7.66085C20.7702 5.16603 20.5523 3.44312 20.5523 3.44312ZM15.6365 4.80477L19.2021 8.39263C18.5762 9.81604 17.5421 11.4309 15.882 13.1013C13.9764 14.9909 12.1537 16.0593 10.6041 16.6614L7.36676 13.4039C7.96513 11.8693 9.02684 10.0353 10.9324 8.12091C12.5925 6.45049 14.225 5.43774 15.6396 4.80786L15.6365 4.80477ZM15.9771 8.01902C15.3787 7.41693 14.3937 7.41693 13.777 8.01902C13.1786 8.62111 13.1786 9.61225 13.777 10.2113C14.3753 10.8133 15.3603 10.8133 15.9771 10.2113C16.5939 9.60916 16.5939 8.63964 15.9771 8.01902V8.01902ZM8.64327 15.3985C7.93444 14.6853 6.60269 13.7003 5.13286 15.4263C4.18161 16.5502 3.96374 18.4121 3.96374 18.4121C3.96374 18.4121 4.45471 17.4271 5.02546 17.1245C5.59621 16.8219 4.07421 20.2739 4.10183 20.2183C4.12944 20.1628 6.90341 18.0817 7.12128 18.5757C7.33914 19.0697 6.19764 20.0269 6.19764 20.0269C6.19764 20.0269 8.18299 19.4526 8.89183 18.5757C9.62521 17.6988 10.0057 16.7416 8.64634 15.3985H8.64327Z" fill="#FFA703"/>
</svg>
