<svg width="24" height="24" viewBox="0 0 24 24" fill="none" xmlns="http://www.w3.org/2000/svg">
<path d="M14.9611 6.11776C14.8109 6.64777 14.63 7.28807 14.446 7.92531C13.4465 11.378 12.4439 14.8277 11.4444 18.2804C11.2635 18.9054 11.1961 18.9452 10.5706 18.7614C10.1843 18.6481 9.80103 18.5163 9.41165 18.4244C9.0376 18.3356 8.96095 18.1579 9.06826 17.7872C10.1076 14.2303 11.1286 10.6703 12.1557 7.11038C12.309 6.57731 12.4684 6.04423 12.6248 5.51116C12.7137 5.21092 12.864 5.06693 13.2073 5.18335C13.6918 5.34879 14.1915 5.4744 14.6852 5.61839C14.8783 5.67353 15.0194 5.76851 14.9642 6.11776H14.9611Z" fill="#FAFAFA"/>
<path d="M17.322 12.0122C17.2208 11.9172 17.1533 11.8498 17.0798 11.7885C16.4175 11.2064 15.7614 10.6152 15.0869 10.0453C14.7833 9.79104 14.7465 9.57658 15.0439 9.2886C15.3843 8.95773 15.7031 8.59928 16.022 8.24696C16.2427 8.00494 16.4512 7.98656 16.6996 8.21939C17.9137 9.36519 19.1309 10.5049 20.3542 11.6384C20.6271 11.8927 20.6547 12.101 20.3696 12.3645C19.1462 13.498 17.929 14.6408 16.718 15.7866C16.4574 16.0317 16.2427 16.0225 16.0067 15.7621C15.6786 15.3975 15.3475 15.036 15.0041 14.6867C14.7619 14.4386 14.7864 14.2425 15.0409 14.0219C15.7215 13.4368 16.3899 12.8394 17.0644 12.2481C17.1472 12.1776 17.2269 12.101 17.322 12.0152V12.0122Z" fill="#FAFAFA"/>
<path d="M7.63034 8.05416C7.78977 8.02965 7.88175 8.14301 7.9768 8.24411C8.31406 8.60255 8.63905 8.96713 8.98244 9.31638C9.23999 9.57679 9.21239 9.78206 8.93952 10.0118C8.26807 10.5847 7.62114 11.1852 6.94356 11.7489C6.67988 11.9695 6.71974 12.0767 6.95582 12.2759C7.59048 12.8059 8.20368 13.3573 8.82301 13.9057C9.29824 14.3254 9.29824 14.353 8.8506 14.8309C8.5624 15.1373 8.27113 15.4406 7.99213 15.7562C7.75911 16.0196 7.54143 16.038 7.28082 15.7929C6.06975 14.6502 4.85255 13.5074 3.63229 12.3739C3.34715 12.1104 3.37168 11.8898 3.64148 11.6386C4.86175 10.502 6.07895 9.36234 7.29308 8.22266C7.38813 8.13382 7.48011 8.0511 7.62421 8.06029L7.63034 8.05416Z" fill="#FAFAFA"/>
</svg>
