<svg width="56" height="56" viewBox="0 0 56 56" fill="none" xmlns="http://www.w3.org/2000/svg">
<path d="M15.7499 29.4383C12.5781 30.274 8.13174 31.3547 8.00286 31.4843C7.87398 31.614 12.127 25.4758 14.6688 21.9023C15.7499 20.3678 17.6545 19.6041 19.4946 19.9859L21.3347 20.3678C18.9218 23.3072 17.0172 26.3115 15.7499 29.4383ZM35.5973 34.712C32.7405 37.1399 29.6903 38.9915 26.5185 40.2667C25.6951 43.4583 24.5495 47.9323 24.485 47.9971C24.3562 48.1268 30.4564 43.8473 34.0722 41.3545C35.5973 40.2667 36.3562 38.3503 35.9767 36.4987L35.5973 34.712V34.712ZM47.9553 8.03362C47.9553 8.03362 43.8956 7.58694 38.1176 9.95002L46.0508 17.875C48.4637 12.0537 47.9553 8.03362 47.9553 8.03362ZM36.4851 11.2108L44.805 19.5825C43.3443 22.9038 40.9314 26.6717 37.0579 30.5694C32.6116 34.9785 28.3586 37.4713 24.7428 38.8762L17.1891 31.2754C18.5853 27.6948 21.0626 23.4153 25.5089 18.9485C29.3824 15.0508 33.1915 12.6877 36.4923 11.218L36.4851 11.2108ZM37.2799 18.7107C35.8837 17.3058 33.5853 17.3058 32.1462 18.7107C30.75 20.1156 30.75 22.4283 32.1462 23.8259C33.5424 25.2308 35.8407 25.2308 37.2799 23.8259C38.719 22.4211 38.719 20.1588 37.2799 18.7107V18.7107ZM20.1676 35.9295C18.5137 34.2653 15.4062 31.9671 11.9766 35.9944C9.75705 38.6168 9.24869 42.9612 9.24869 42.9612C9.24869 42.9612 10.3943 40.6629 11.726 39.9569C13.0578 39.2508 9.50645 47.3055 9.57089 47.1758C9.63533 47.0461 16.1079 42.1903 16.6163 43.343C17.1246 44.4957 14.4611 46.7291 14.4611 46.7291C14.4611 46.7291 19.0936 45.3891 20.7476 43.343C22.4588 41.2969 23.3466 39.0635 20.1748 35.9295H20.1676Z" fill="#1C1C1C"/>
</svg>
