<svg width="24" height="24" viewBox="0 0 24 24" fill="none" xmlns="http://www.w3.org/2000/svg">
<path d="M18.6892 8.06805C14.6466 8.06805 10.604 8.06805 6.5614 8.06805C6.40292 8.06805 6.24135 8.08504 6.08909 8.05673C5.81875 8.00576 5.65096 7.85569 5.67892 7.58387C5.70378 7.34036 5.85915 7.21294 6.12327 7.19878C6.2631 7.19029 6.40292 7.19595 6.54586 7.19595C10.517 7.19595 14.4912 7.19595 18.4624 7.19595C18.6022 7.19595 18.7451 7.19595 18.885 7.19595C19.3076 7.18463 19.5251 7.00341 19.5251 6.60134C19.5251 5.74623 18.8446 5.16294 17.757 5.16011C13.7455 5.14312 9.73706 5.16861 5.73175 5.14312C4.33657 5.13463 3.40749 6.06619 3.42924 7.27523C3.49138 10.4125 3.4976 13.5498 3.42924 16.6871C3.39816 18.0462 4.48883 18.8957 5.79389 18.856C7.91929 18.7937 10.0478 18.839 12.1732 18.839C14.3887 18.839 16.6011 18.8447 18.8166 18.8362C19.9694 18.8305 20.566 18.2784 20.5691 17.2392C20.5722 14.7419 20.5722 12.2445 20.5691 9.74712C20.5691 8.62302 19.9445 8.06522 18.6892 8.06522V8.06805ZM17.3437 14.3879C16.8372 14.3879 16.337 13.9264 16.3401 13.462C16.3401 12.9835 16.8155 12.5645 17.3562 12.5645C17.903 12.5645 18.3536 12.9694 18.3505 13.4649C18.3505 13.9349 17.8564 14.3851 17.3468 14.3851L17.3437 14.3879Z" fill="#FAFAFA"/>
</svg>
