<svg width="56" height="56" viewBox="0 0 56 56" fill="none" xmlns="http://www.w3.org/2000/svg">
<path d="M28.044 39.1644C25.5215 39.1501 23.541 41.1311 23.5555 43.6647C23.5627 46.1553 25.4636 47.9999 28.0223 47.9927C30.5665 47.9927 32.4529 46.1266 32.4529 43.6288C32.4529 41.1598 30.5014 39.1788 28.0512 39.1644H28.044ZM28.044 46.1984C26.6996 46.2271 25.4998 45.0069 25.4998 43.6073C25.4998 42.1431 26.5767 41.0593 28.0223 41.0665C29.4606 41.0736 30.5231 42.1862 30.5086 43.6504C30.4942 44.9854 29.3522 46.1696 28.044 46.1984V46.1984Z" fill="#1C1C1C"/>
<path d="M43.5476 23.6539C40.9745 23.6467 39.117 25.4411 39.0808 27.9675C39.0447 30.5227 40.9673 32.4822 43.5187 32.4822C45.9617 32.4822 47.9782 30.494 47.9999 28.068C48.0216 25.6349 46.0412 23.6682 43.5548 23.6539H43.5476ZM43.5331 30.5371C42.1382 30.5514 40.8878 29.3671 40.8878 28.0393C40.8878 26.7258 42.1671 25.4411 43.4898 25.4267C44.8341 25.4124 46.0484 26.6182 46.0701 27.9963C46.0918 29.4246 44.9932 30.5227 43.5331 30.5371V30.5371Z" fill="#1C1C1C"/>
<path d="M12.5547 32.475C15.041 32.4535 16.9347 30.5156 16.9202 28.0106C16.9058 25.4267 15.0338 23.6252 12.3812 23.6467C9.9671 23.6683 8.02283 25.599 8.00115 28.0106C7.97946 30.4653 10.0538 32.5037 12.5547 32.475ZM12.5041 25.4196C13.8195 25.4339 15.0988 26.7187 15.1061 28.0322C15.1061 29.36 13.8557 30.5443 12.4607 30.5299C11.0007 30.5156 9.90205 29.4174 9.92374 27.9891C9.94542 26.611 11.1597 25.4052 12.5041 25.4196V25.4196Z" fill="#1C1C1C"/>
<path d="M28.0655 16.8713C30.588 16.8211 32.4528 14.9262 32.4456 12.4213C32.4383 9.95226 30.4724 8.02153 27.9932 8.02871C25.4563 8.02871 23.5265 10.0025 23.5554 12.5577C23.5843 15.0124 25.5719 16.9144 28.0727 16.8641L28.0655 16.8713ZM27.9643 9.89484C29.381 9.88049 30.4941 10.993 30.5013 12.4357C30.5013 13.8281 29.3087 15.0483 27.9716 15.0267C26.6561 15.0052 25.5141 13.8353 25.4924 12.5074C25.478 11.0504 26.5549 9.9092 27.9643 9.89484V9.89484Z" fill="#1C1C1C"/>
<path d="M43.4969 16.8499C46.0122 16.8499 47.9854 14.9263 47.9926 12.4645C48.0071 10.0672 45.9399 8.01443 43.5041 8.00008C41.0395 7.98572 39.0735 9.95952 39.0663 12.4501C39.0663 15.0053 40.9166 16.8427 43.4897 16.8499H43.4969ZM43.4897 9.89493C44.8919 9.88775 46.0556 11.0218 46.07 12.4214C46.0845 13.7851 44.8919 15.0124 43.5331 15.034C42.2537 15.0555 40.8949 13.7349 40.8877 12.4716C40.8877 11.1366 42.1236 9.90928 43.4825 9.89493H43.4897Z" fill="#1C1C1C"/>
<path d="M12.5257 39.1644C10.0683 39.1357 7.94333 41.2602 8.00115 43.679C8.05898 46.1481 10.0177 48.0142 12.5257 47.9999C15.0916 47.9855 16.9275 46.1481 16.9202 43.6073C16.913 41.1095 15.0121 39.1931 12.5185 39.1644H12.5257ZM12.4968 46.1911C11.1525 46.2055 9.93097 44.971 9.93097 43.6073C9.93097 42.1933 11.0585 41.0664 12.4752 41.0664C13.8484 41.0664 15.0916 42.2507 15.1061 43.5929C15.1205 44.8777 13.8123 46.184 12.4968 46.1911V46.1911Z" fill="#1C1C1C"/>
<path d="M43.5041 39.1644C40.9744 39.1644 39.0373 41.1454 39.0662 43.6934C39.0951 46.2198 40.9599 48.007 43.5475 47.9998C46.0338 47.9855 48.007 46.0332 47.9853 43.5929C47.9636 41.1884 45.911 39.1572 43.4969 39.1644H43.5041ZM43.5402 46.1911C42.232 46.2055 40.9093 44.9279 40.8876 43.6288C40.866 42.3009 42.1091 41.0736 43.4752 41.0664C44.9063 41.0521 46.0483 42.1574 46.0627 43.5713C46.0772 44.9351 44.8846 46.1768 43.5402 46.1911V46.1911Z" fill="#1C1C1C"/>
<path d="M31.8529 27.1638C31.5349 27.0274 31.1952 27.0776 30.935 27.3217C30.5881 27.6518 30.5447 28.0968 30.4652 28.549C30.2845 29.5754 29.5978 30.2357 28.6438 30.4869C27.6319 30.7525 26.6923 30.4654 26.0129 29.5897C24.7335 27.9533 25.637 25.958 27.9427 25.434C28.5426 25.2976 29.0052 25.0967 28.9401 24.4435C28.8751 23.8119 28.398 23.6468 27.7764 23.6396C25.5214 23.6181 23.5699 25.6134 23.5554 28.1686C23.5482 28.6567 23.6494 29.1376 23.8373 29.6687C24.5384 31.5851 26.7935 32.8268 28.7956 32.432C30.8627 32.0301 32.4745 30.1711 32.4601 28.2476C32.4601 27.7451 32.3372 27.3576 31.8601 27.1566L31.8529 27.1638Z" fill="#1C1C1C"/>
<path d="M8.76705 13.3112C9.7428 13.5122 9.85122 12.7873 9.95241 12.0264C10.097 10.9283 11.1233 10.0096 12.1858 9.89474C13.3495 9.76555 14.4698 10.4618 14.8962 11.5814C15.5178 13.2107 14.6794 14.4811 12.5038 15.0194C11.8533 15.1845 11.5642 15.4644 11.622 16.0889C11.6871 16.8066 12.2075 16.8712 12.7857 16.8497C15.1781 16.7564 16.9345 14.8759 16.92 12.414C16.9055 10.0239 15.2793 8.29417 12.8218 8.05014C10.5812 7.82763 8.61527 9.34208 8.12378 11.646C7.972 12.3638 7.82744 13.1174 8.76705 13.3112Z" fill="#1C1C1C"/>
</svg>
