<svg width="24" height="24" viewBox="0 0 24 24" fill="none" xmlns="http://www.w3.org/2000/svg">
<path d="M12.0189 16.7847C10.9378 16.7785 10.0891 17.6275 10.0952 18.7134C10.0983 19.7808 10.913 20.5713 12.0096 20.5682C13.0999 20.5682 13.9084 19.7685 13.9084 18.698C13.9084 17.6398 13.0721 16.7909 12.022 16.7847H12.0189ZM12.0189 19.7992C11.4427 19.8115 10.9285 19.2886 10.9285 18.6888C10.9285 18.0613 11.3901 17.5968 12.0096 17.5999C12.626 17.6029 13.0814 18.0797 13.0752 18.7072C13.069 19.2794 12.5795 19.7869 12.0189 19.7992V19.7992Z" fill="#FAFAFA"/>
<path d="M18.6633 10.1377C17.5606 10.1346 16.7645 10.9036 16.749 11.9864C16.7335 13.0815 17.5575 13.9212 18.6509 13.9212C19.6979 13.9212 20.5622 13.0692 20.5715 12.0295C20.5808 10.9867 19.732 10.1439 18.6664 10.1377H18.6633ZM18.6571 13.0876C18.0593 13.0938 17.5234 12.5862 17.5234 12.0172C17.5234 11.4543 18.0717 10.9036 18.6385 10.8975C19.2147 10.8913 19.7351 11.4081 19.7444 11.9987C19.7537 12.6108 19.2829 13.0815 18.6571 13.0876V13.0876Z" fill="#FAFAFA"/>
<path d="M5.38065 13.9179C6.44624 13.9087 7.25781 13.0781 7.25162 12.0046C7.24542 10.8972 6.44314 10.1251 5.30631 10.1344C4.2717 10.1436 3.43844 10.971 3.42915 12.0046C3.41986 13.0566 4.30887 13.9302 5.38065 13.9179ZM5.35897 10.8941C5.92274 10.9003 6.47102 11.4509 6.47411 12.0138C6.47411 12.5829 5.93822 13.0904 5.34038 13.0843C4.71466 13.0781 4.24382 12.6075 4.25312 11.9954C4.26241 11.4048 4.78281 10.888 5.35897 10.8941V10.8941Z" fill="#FAFAFA"/>
<path d="M12.028 7.23062C13.1091 7.20909 13.9083 6.39701 13.9052 5.32347C13.9021 4.26531 13.0595 3.43785 11.997 3.44093C10.9098 3.44093 10.0827 4.28684 10.0951 5.38191C10.1075 6.43392 10.9593 7.24908 12.0311 7.22754L12.028 7.23062ZM11.9847 4.2407C12.5918 4.23455 13.0688 4.71134 13.0719 5.32962C13.0719 5.92638 12.5608 6.4493 11.9878 6.44008C11.424 6.43085 10.9346 5.92945 10.9253 5.36038C10.9191 4.73594 11.3806 4.24685 11.9847 4.2407V4.2407Z" fill="#FAFAFA"/>
<path d="M18.6415 7.22152C19.7195 7.22152 20.5651 6.39713 20.5682 5.34205C20.5744 4.31465 19.6885 3.4349 18.6446 3.42874C17.5883 3.42259 16.7458 4.26851 16.7427 5.3359C16.7427 6.43097 17.5357 7.21844 18.6384 7.22152H18.6415ZM18.6384 4.24082C19.2394 4.23775 19.7381 4.72376 19.7443 5.32359C19.7505 5.90804 19.2394 6.43405 18.657 6.44327C18.1087 6.4525 17.5264 5.88651 17.5233 5.34512C17.5233 4.77298 18.053 4.24697 18.6353 4.24082H18.6384Z" fill="#FAFAFA"/>
<path d="M5.3682 16.7848C4.315 16.7725 3.4043 17.683 3.42908 18.7196C3.45386 19.7778 4.29332 20.5776 5.3682 20.5714C6.46785 20.5653 7.25465 19.7778 7.25155 18.6889C7.24845 17.6184 6.43378 16.7971 5.3651 16.7848H5.3682ZM5.3558 19.7962C4.77965 19.8024 4.25615 19.2733 4.25615 18.6889C4.25615 18.0829 4.73938 17.5999 5.34651 17.5999C5.93506 17.5999 6.46785 18.1075 6.47405 18.6827C6.48024 19.2333 5.91957 19.7932 5.3558 19.7962V19.7962Z" fill="#FAFAFA"/>
<path d="M18.6446 16.7847C17.5605 16.7847 16.7303 17.6337 16.7427 18.7257C16.7551 19.8084 17.5543 20.5744 18.6632 20.5713C19.7288 20.5651 20.5745 19.7285 20.5652 18.6826C20.5559 17.6521 19.6761 16.7816 18.6415 16.7847H18.6446ZM18.6601 19.7961C18.0994 19.8023 17.5326 19.2547 17.5233 18.698C17.514 18.1289 18.0468 17.6029 18.6322 17.5998C19.2456 17.5937 19.735 18.0674 19.7412 18.6734C19.7474 19.2578 19.2363 19.79 18.6601 19.7961V19.7961Z" fill="#FAFAFA"/>
<path d="M13.6512 11.6418C13.5149 11.5833 13.3693 11.6048 13.2578 11.7094C13.1091 11.8509 13.0905 12.0416 13.0565 12.2354C12.979 12.6753 12.6847 12.9583 12.2759 13.066C11.8422 13.1798 11.4395 13.0567 11.1483 12.6815C10.6 11.9801 10.9872 11.125 11.9754 10.9004C12.2325 10.842 12.4307 10.7559 12.4029 10.4759C12.375 10.2052 12.1705 10.1345 11.9041 10.1314C10.9377 10.1222 10.1013 10.9773 10.0951 12.0724C10.092 12.2816 10.1354 12.4877 10.2159 12.7153C10.5164 13.5366 11.4829 14.0688 12.3409 13.8996C13.2268 13.7273 13.9176 12.9306 13.9114 12.1062C13.9114 11.8909 13.8587 11.7248 13.6543 11.6387L13.6512 11.6418Z" fill="#FAFAFA"/>
<path d="M3.75733 5.70493C4.17551 5.79106 4.22197 5.48038 4.26534 5.15432C4.32729 4.68369 4.76715 4.28995 5.2225 4.24073C5.72122 4.18537 6.20135 4.48374 6.38411 4.96361C6.65051 5.66187 6.29118 6.20633 5.3588 6.43703C5.08001 6.50778 4.95611 6.62775 4.98089 6.89537C5.00877 7.20297 5.2318 7.23066 5.47961 7.22143C6.50492 7.18144 7.25764 6.37551 7.25145 5.32043C7.24525 4.2961 6.54829 3.55477 5.49509 3.45019C4.53483 3.35483 3.69228 4.00388 3.48164 4.99129C3.41659 5.2989 3.35463 5.62188 3.75733 5.70493Z" fill="#FAFAFA"/>
</svg>
