<svg width="56" height="56" viewBox="0 0 56 56" fill="none" xmlns="http://www.w3.org/2000/svg">
<path d="M47.0546 38.7816C43.9989 35.6617 40.9286 32.5492 37.7923 29.5102C36.1801 27.9503 34.165 27.575 32.0326 28.274C31.4537 28.4653 31.1606 28.3476 30.7869 27.965C29.2773 26.4197 23.8548 21.1439 23.3785 19.7532C23.078 18.8849 23.2539 17.6561 23.2539 17.6561C23.7009 15.868 22.8435 14.8305 21.4219 13.8592C18.9012 12.1374 16.4976 10.239 14.0941 8.35524C13.5006 7.89167 13.1342 7.88431 12.6652 8.31845C12.5846 8.38467 12.4966 8.45825 12.4087 8.55391C11.207 9.83425 9.97588 11.0852 8.69351 12.2845C8.09996 12.8438 8.04866 13.219 8.56894 13.8813C10.4449 16.2948 12.3354 18.7083 14.0501 21.2395C15.0174 22.667 16.0506 23.528 17.8313 23.0791C18.7546 22.8289 19.5094 22.9467 20.1909 23.2851C20.6672 23.5206 21.0995 23.8738 21.5245 24.2859C21.7004 24.4551 25.8699 28.7229 27.8191 30.6434C28.2954 31.1143 28.464 31.4896 28.2221 32.218C27.5626 34.1753 27.929 36.0958 29.3286 37.5749C32.443 40.864 35.6672 44.0501 38.8988 47.2289C39.976 48.2885 41.7859 48.237 42.8704 47.1921C44.314 45.8087 45.7356 44.396 47.1059 42.939C48.3077 41.6587 48.3004 40.0325 47.0693 38.7742L47.0546 38.7816Z" fill="#1C1C1C"/>
<path d="M31.3437 25.4042C31.5929 25.6543 31.7907 25.9413 32.2597 25.8604C35.6232 25.2717 38.3198 26.5079 40.5035 29.0171C41.0018 29.5836 41.3975 29.4953 41.9617 29.1936C45.9408 27.0745 47.7287 23.6455 47.9706 19.2674C48.0145 18.5536 47.5455 16.0518 46.9373 15.809C46.2705 15.5441 45.8748 16.0371 45.4718 16.4344C44.5631 17.3248 43.6545 18.2078 42.7532 19.1055C41.8592 19.937 40.4742 21.1805 39.9979 21.3498C39.6315 21.4822 38.8841 21.5705 38.1293 21.4896C37.3232 21.3498 36.5099 21.2394 35.7038 21.1069C35.3887 21.0554 35.037 21.0334 34.9637 20.6066C34.8245 19.7604 34.6926 18.9142 34.5533 18.0606L34.568 18.0753C34.3848 17.1997 34.4361 16.3609 34.59 15.9267C34.7805 15.3896 36.3193 13.7045 37.1107 12.8583C37.9021 12.0489 38.6935 11.2322 39.4923 10.4301C39.9026 10.0107 40.3276 9.60599 40.0932 8.9511C39.8587 8.31094 39.2578 8.20056 38.7009 8.13434C37.5284 7.99453 36.3706 7.95774 35.1762 8.06811C29.9661 8.55376 25.4449 13.4911 25.4595 18.7523C25.4595 19.2747 25.5841 19.6574 25.9725 20.04C27.7824 21.8133 29.5558 23.6235 31.3437 25.4115V25.4042Z" fill="#1C1C1C"/>
<path d="M25.8845 32.4902C26.0384 32.0487 25.8405 31.7323 25.5181 31.4158C24.3237 30.2459 23.1366 29.0612 21.9714 27.8545C21.5904 27.4571 21.3193 27.3688 20.8796 27.8103C17.0252 31.7543 13.1194 35.6468 9.30164 39.6277C7.79944 41.195 7.67487 43.1449 8.53222 45.0875C9.38958 47.0227 10.9797 47.9572 13.5005 47.9572C14.6656 48.0087 15.904 47.317 16.9885 46.2354C19.8464 43.373 22.7042 40.5106 25.5914 37.6851C26.1556 37.1332 26.3168 36.6549 26.097 35.8676C25.7892 34.7786 25.4888 33.6528 25.8918 32.4975L25.8845 32.4902ZM13.1487 44.646C12.2841 44.6607 11.4707 43.8439 11.456 42.9389C11.4414 41.9455 12.1155 41.2465 13.0975 41.2318C14.0427 41.217 14.8122 41.9529 14.8195 42.88C14.8341 43.7556 13.9988 44.6313 13.1487 44.646V44.646Z" fill="#1C1C1C"/>
</svg>
