<svg width="57" height="56" viewBox="0 0 57 56" fill="none" xmlns="http://www.w3.org/2000/svg">
<path d="M15.4002 26.819C15.9202 26.819 16.3378 27.2257 16.3378 27.7322V27.9747H16.8432C16.8432 27.9747 17.6782 24.0725 18.0372 22.3533L16.9018 22.339V18.0088C16.9018 18.0088 23.5455 30.0007 26.8637 36.2428H29.4861L29.6618 37.6054H42.0264C42.0776 37.0846 42.1143 36.6851 42.1582 36.1572H46.8096V20.9907H34.4377L34.4011 31.6058C34.4011 31.6058 26.2191 20.6483 22.6519 15.8044C20.7474 13.222 18.8429 10.6467 16.8871 8C15.532 8.80612 14.2648 9.55517 13.0196 10.2971C13.4371 11.2174 14.0524 11.9807 14.0817 12.7654C14.1989 15.9471 14.133 19.1288 14.133 22.3461L12.7412 22.3604C13.1661 24.1724 13.5909 26.1841 13.9718 27.9819H14.4626V27.7393C14.4626 27.2328 14.8801 26.8262 15.4002 26.8262V26.819ZM38.1148 24.2937H43.3229V28.7737H38.1148V24.2937ZM29.7497 28.203C30.3724 29.0305 30.8778 29.7011 31.4565 30.4644C30.3064 31.1136 29.215 31.7342 28.1236 32.3478C28.043 32.2621 27.9698 32.1837 27.8892 32.0981C28.4825 30.8639 29.0685 29.6298 29.7571 28.1959L29.7497 28.203ZM27.7354 27.2043C27.2373 28.3813 26.7319 29.5656 26.1678 30.8996C25.721 30.1434 25.3768 29.5513 24.9812 28.8736C25.8309 28.2672 26.6659 27.6751 27.501 27.083C27.5816 27.1258 27.6548 27.1686 27.7354 27.2114V27.2043ZM25.9627 23.3021C26.4682 23.9441 26.8564 24.4363 27.3618 25.0784C26.4389 25.6491 25.6478 26.1485 24.5344 26.8333C25.0691 25.5135 25.4647 24.5219 25.9627 23.3021V23.3021ZM24.2707 22.5744C23.9118 23.5589 23.5528 24.5505 23.106 25.7704C22.6958 25.007 22.3882 24.4363 22.0439 23.7872C22.7398 23.3092 23.377 22.874 24.0143 22.4389C24.1022 22.4817 24.1828 22.5316 24.2707 22.5744V22.5744ZM22.1977 18.1015C22.7617 18.9005 23.1646 19.4569 23.6554 20.1489C22.9082 20.6055 22.2417 21.0121 21.4359 21.5115C21.6923 20.3558 21.9194 19.3571 22.1977 18.1015V18.1015ZM20.1614 20.0847C19.634 19.1502 19.297 18.5581 18.9308 17.916C19.5021 17.5522 20.0515 17.2026 20.8426 16.6961C20.6082 17.8661 20.4178 18.8006 20.1541 20.0847H20.1614ZM18.5352 12.5014C19.0407 13.3646 19.3996 13.971 19.8244 14.6987C19.2018 15.0982 18.6305 15.462 17.7881 16.0042C18.0518 14.7486 18.2569 13.7784 18.5279 12.4943L18.5352 12.5014ZM17.1508 10.8321C16.9384 11.9165 16.7626 12.8225 16.5209 14.0566C16.0521 13.1863 15.7444 12.6085 15.3782 11.9236C16.0008 11.5384 16.4843 11.2388 17.1508 10.825V10.8321ZM15.4661 14.8627C15.4661 14.8627 15.5906 19.8279 15.6785 22.3675C15.5613 22.3675 15.4441 22.3675 15.3269 22.3675C15.3269 19.8422 15.4661 17.3881 15.4661 14.8627V14.8627Z" fill="#1C1C1C"/>
<path d="M48.3916 41.3792C48.2524 39.8383 47.3808 39.1748 45.8059 39.1463C44.1285 39.1178 42.4511 39.132 40.7737 39.132C36.2468 39.132 31.72 39.1249 27.1932 39.1463C25.0104 39.1606 23.9629 40.2164 23.9556 42.2995C23.9556 43.1983 23.9556 44.0972 23.9556 44.9961C23.9556 47.0577 24.8346 47.9495 27.0101 47.9709C30.1085 48.0065 33.2143 47.978 36.3201 47.978C36.3201 47.978 36.3201 47.9851 36.3201 47.9923C39.4625 47.9923 42.6122 48.0137 45.7546 47.9851C47.3002 47.9709 48.2378 47.2503 48.3843 45.7594C48.5308 44.3112 48.5381 42.8345 48.4063 41.3863L48.3916 41.3792ZM45.0368 44.4895H27.4789V42.6134H45.0295V44.4895H45.0368Z" fill="#1C1C1C"/>
<path d="M20.2199 40.1879C20.7546 40.1237 21.1941 40.0738 21.5824 40.031V38.3973H8.50732V40.0809C9.07135 40.1166 9.51817 40.138 10.0016 40.1665V42.2353C9.43759 42.2995 8.96147 42.3566 8.5 42.4066V43.9617H21.619V42.378C21.1282 42.3281 20.6887 42.2853 20.2199 42.2425V40.1879V40.1879Z" fill="#1C1C1C"/>
<path d="M10.3459 38.0048L13.6201 35.0229C14.1256 35.3653 14.7408 35.5651 15.4001 35.5651C15.8982 35.5651 16.367 35.4509 16.7845 35.244L19.8097 37.9977H21.5531L17.7514 34.5093C18.2275 33.9742 18.5132 33.2822 18.5132 32.5189C18.5132 32.0124 18.0957 31.6058 17.5756 31.6058C17.0555 31.6058 16.638 32.0124 16.638 32.5189C16.638 33.1895 16.0813 33.7317 15.3928 33.7317C14.7042 33.7317 14.1475 33.1895 14.1475 32.5189C14.1475 31.8483 14.7042 31.3062 15.3928 31.3062H16.3304V27.9675H14.4552V29.6226C13.1953 30.0078 12.2723 31.1635 12.2723 32.5189C12.2723 33.1182 12.4555 33.6817 12.7631 34.1526L8.60254 38.012H10.3459V38.0048Z" fill="#1C1C1C"/>
<path d="M16.3378 27.7321C16.3378 27.2257 15.9203 26.8192 15.4002 26.8192C14.8802 26.8192 14.4626 27.2257 14.4626 27.7321V27.9745H16.3378V27.7321V27.7321Z" fill="#1C1C1C"/>
</svg>
