<svg width="56" height="56" viewBox="0 0 56 56" fill="none" xmlns="http://www.w3.org/2000/svg">
<path d="M47.3946 19.9095L36.1118 8.60061C35.598 8.08559 34.8558 7.88531 34.1564 8.06413C33.4571 8.24296 32.9075 8.78659 32.7077 9.48758C32.5079 10.1814 32.7006 10.9325 33.2001 11.4547L10.3634 34.237C8.32955 36.2684 7.53026 39.2298 8.27246 42.0123C9.00751 44.7948 11.1699 46.9693 13.9388 47.7204C16.7078 48.4714 19.6694 47.6846 21.7033 45.6603L44.5757 22.8422C45.1038 23.3358 45.846 23.5075 46.5382 23.3072C47.2304 23.1069 47.7585 22.549 47.9369 21.8551C48.1154 21.1541 47.9084 20.4174 47.4017 19.9095H47.3946ZM25.1859 25.6176C25.6212 25.6176 26.0209 25.8823 26.185 26.29C26.3563 26.6977 26.2635 27.1626 25.9495 27.4702C25.6426 27.7778 25.1716 27.8708 24.772 27.7063C24.3652 27.5418 24.1011 27.1412 24.1011 26.7049C24.1011 26.104 24.5864 25.6176 25.1859 25.6176ZM19.4696 44.8377C19.1413 45.1596 18.6132 45.1596 18.2921 44.8306C17.9709 44.5015 17.9709 43.9722 18.2992 43.6503L37.0538 25.124C34.1707 24.3229 28.6399 22.7993 25.5356 21.9767L34.6346 12.8996L43.1412 21.4259L19.4696 44.8306V44.8377ZM29.846 26.7049C29.846 26.2685 30.1101 25.868 30.5168 25.7034C30.9236 25.5389 31.3875 25.6319 31.6943 25.9395C32.0012 26.2471 32.094 26.7192 31.9298 27.1197C31.7586 27.5274 31.3661 27.7921 30.9307 27.7921C30.3313 27.7921 29.846 27.3057 29.846 26.7049V26.7049Z" fill="#1C1C1C"/>
</svg>
