<svg width="56" height="56" viewBox="0 0 56 56" fill="none" xmlns="http://www.w3.org/2000/svg">
<path d="M35.4791 48.0001H38.6095C38.9539 47.9989 39.2457 47.7394 39.2955 47.3893C39.6178 44.9284 40.159 42.5027 40.9122 40.1431H33.1755C33.9293 42.5024 34.4709 44.9278 34.7937 47.3887C34.8432 47.7388 35.135 47.9989 35.4794 48.0001L35.4791 48.0001Z" fill="#1C1C1C"/>
<path d="M25.9135 38.7145C25.9135 40.2923 24.6676 41.5715 23.1306 41.5715C21.594 41.5715 20.3481 40.2923 20.3481 38.7145C20.3481 37.1366 21.594 35.8574 23.1306 35.8574C24.6676 35.8574 25.9135 37.1366 25.9135 38.7145Z" fill="#1C1C1C"/>
<path d="M28.0003 26.5713H28.6958V25.8571C28.6958 25.0993 28.989 24.3726 29.5108 23.8369C30.0328 23.3011 30.7406 23.0001 31.4783 23.0001H31.6967C31.8123 22.6778 31.9797 22.178 32.1739 21.5065L32.1742 20.1427C32.1742 19.7639 32.0274 19.4004 31.7665 19.1326C31.5057 18.8647 31.1516 18.7144 30.7828 18.7144H16.1741C15.8052 18.7144 15.4512 18.8647 15.1903 19.1326C14.9295 19.4004 14.7827 19.764 14.7827 20.1427V28.7142C14.7827 29.0932 14.9295 29.4565 15.1903 29.7243C15.4512 29.9925 15.8052 30.1428 16.1741 30.1428H28.6958V28H28.0003C27.616 28 27.3044 27.6801 27.3044 27.2858C27.3044 26.8912 27.616 26.5713 28.0003 26.5713L28.0003 26.5713ZM18.2609 28H17.5653C17.181 28 16.8695 27.6801 16.8695 27.2858C16.8695 26.8912 17.181 26.5713 17.5653 26.5713H18.2609C18.6452 26.5713 18.9564 26.8912 18.9564 27.2858C18.9564 27.6801 18.6452 28 18.2609 28ZM17.5653 24.4284C17.1962 24.4284 16.8424 24.2781 16.5816 24.0102C16.3204 23.7424 16.174 23.3788 16.174 23.0001V21.5714C16.174 21.1926 16.3204 20.8291 16.5816 20.5613C16.8424 20.2934 17.1962 20.1427 17.5653 20.1427H19.6523C20.0212 20.1427 20.3752 20.2934 20.6361 20.5613C20.8969 20.8291 21.0434 21.1927 21.0434 21.5714V23.0001C21.0434 23.3789 20.8969 23.7424 20.6361 24.0102C20.3752 24.2781 20.0212 24.4284 19.6523 24.4284H17.5653ZM21.7393 28H21.0434C20.6594 28 20.3479 27.6801 20.3479 27.2858C20.3479 26.8912 20.6594 26.5713 21.0434 26.5713H21.7393C22.1233 26.5713 22.4348 26.8912 22.4348 27.2858C22.4348 27.6801 22.1233 28 21.7393 28ZM25.2176 28H24.5218C24.1374 28 23.8262 27.6801 23.8262 27.2858C23.8262 26.8912 24.1374 26.5713 24.5218 26.5713H25.2173C25.6016 26.5713 25.9132 26.8912 25.9132 27.2858C25.9132 27.6801 25.6016 28 25.2173 28H25.2176ZM26.609 21.5714H26.6087C26.2244 21.5714 25.9132 21.2515 25.9132 20.8572C25.9132 20.4626 26.2244 20.1427 26.6087 20.1427H30.0871C30.4711 20.1427 30.7826 20.4626 30.7826 20.8572C30.7826 21.2515 30.4711 21.5714 30.0871 21.5714H26.609Z" fill="#1C1C1C"/>
<path d="M17.5654 21.5715H19.653V23.0002H17.5654V21.5715Z" fill="#1C1C1C"/>
<path d="M40.912 23.0004C40.1582 20.6408 39.6167 18.2154 39.2938 15.7544C39.2443 15.4044 38.9526 15.1443 38.6081 15.1431H35.4777C35.3942 15.1431 35.3115 15.1589 35.2334 15.1894L35.2244 15.1945C34.9932 15.2881 34.8282 15.5015 34.7918 15.7538C34.4695 18.2148 33.9282 20.6405 33.175 23.0004L40.912 23.0004ZM36.348 17.286C36.348 16.8913 36.6592 16.5718 37.0435 16.5718C37.4278 16.5718 37.7391 16.8913 37.7391 17.286V18.0001C37.7391 18.3948 37.4278 18.7146 37.0435 18.7146C36.6592 18.7146 36.348 18.3948 36.348 18.0001V17.286Z" fill="#1C1C1C"/>
<path d="M31.478 38.7144H42.6089C42.9778 38.7144 43.3318 38.564 43.5927 38.2959C43.8536 38.028 44 37.6648 44 37.2857V25.8574C44 25.4786 43.8536 25.1151 43.5927 24.8472C43.3318 24.5794 42.9778 24.4287 42.6089 24.4287H31.478C31.1091 24.4287 30.7551 24.5794 30.4942 24.8472C30.2334 25.1151 30.0869 25.4786 30.0869 25.8574V37.2857C30.0869 37.6648 30.2334 38.028 30.4942 38.2959C30.7551 38.564 31.1091 38.7144 31.478 38.7144V38.7144ZM36.3475 28.1317L36.3477 28.0002C36.3477 27.6056 36.659 27.286 37.0433 27.286C37.4276 27.286 37.7389 27.6056 37.7389 28.0002V28.1431C38.2053 28.3075 38.5998 28.6366 38.8519 29.0716C39.0301 29.4115 38.9131 29.8354 38.5873 30.0286C38.2618 30.2217 37.8457 30.1144 37.6478 29.7858C37.5238 29.5652 37.2943 29.4289 37.046 29.4289C36.7976 29.4286 36.5679 29.5643 36.4436 29.7849C36.319 30.0055 36.3184 30.2776 36.4421 30.4988C36.5659 30.72 36.795 30.8566 37.0434 30.8572C37.7043 30.856 38.3268 31.1771 38.7201 31.7224C39.1137 32.2677 39.2316 32.9723 39.038 33.6213C38.8447 34.27 38.3626 34.7863 37.7389 35.0117V35.143C37.7389 35.5376 37.4276 35.8574 37.0433 35.8574C36.659 35.8574 36.3478 35.5376 36.3478 35.143V35.0001C35.8814 34.8356 35.4868 34.5068 35.2347 34.0715C35.0565 33.7316 35.1736 33.3077 35.4993 33.1146C35.8249 32.9214 36.2409 33.0291 36.4389 33.3573C36.5629 33.5782 36.7923 33.7143 37.0407 33.7146C37.289 33.7146 37.5187 33.5788 37.643 33.3582C37.7677 33.1376 37.7682 32.8655 37.6445 32.6443C37.5208 32.4234 37.2916 32.2868 37.0433 32.2859C36.3824 32.2871 35.7599 31.966 35.3666 31.421C34.9729 30.8757 34.855 30.1708 35.0486 29.5221C35.2419 28.8731 35.7241 28.3571 36.3477 28.1317H36.3475ZM31.478 27.286C31.478 26.9069 31.6247 26.5437 31.8856 26.2758C32.1465 26.0077 32.5005 25.8573 32.8694 25.8573H34.2608C34.6448 25.8573 34.9563 26.1772 34.9563 26.5715C34.9563 26.9661 34.6448 27.286 34.2608 27.286H32.8694V31.5717C32.8694 31.966 32.5579 32.2859 32.1738 32.2859C31.7895 32.2859 31.478 31.966 31.478 31.5717L31.478 27.286Z" fill="#1C1C1C"/>
<path d="M18.2609 10.1431H28.0003C28.1846 10.1431 28.3616 10.0678 28.492 9.93385C28.6225 9.79991 28.6958 9.61816 28.6958 9.42862V8.00024H17.5657V9.42862C17.5657 9.61816 17.6388 9.79992 17.7692 9.93385C17.8999 10.0678 18.0766 10.1431 18.2612 10.1431H18.2609Z" fill="#1C1C1C"/>
<path d="M12 45.8571C12 46.4254 12.2198 46.9707 12.6111 47.3725C13.0027 47.7743 13.5335 48 14.087 48H32.1742C32.6208 47.9988 33.0552 47.8502 33.413 47.5758C33.0887 45.0449 32.5142 42.5544 31.6981 40.143H31.4783C30.7405 40.143 30.0327 39.842 29.5108 39.3059C28.989 38.7702 28.6958 38.0435 28.6958 37.2857V31.5716H16.1741C15.436 31.5716 14.7283 31.2705 14.2065 30.7345C13.6848 30.1987 13.3916 29.472 13.3916 28.7142V20.1427C13.3916 19.3852 13.6848 18.6584 14.2065 18.1225C14.7283 17.5867 15.436 17.2857 16.1741 17.2857H30.7828C31.6228 17.2881 32.4161 17.6824 32.9393 18.3571C33.1085 17.5165 33.2724 16.5828 33.4171 15.5515C33.5001 14.9805 33.8043 14.4681 34.2611 14.1314V10.1429C34.2611 9.57458 34.041 9.02928 33.6497 8.62749C33.2584 8.22571 32.7277 8 32.1742 8H30.0872V9.42837C30.0872 9.99668 29.8671 10.542 29.4758 10.9438C29.0845 11.3456 28.5537 11.5713 28.0003 11.5713H18.2609C17.7074 11.5713 17.1766 11.3456 16.785 10.9438C16.3937 10.542 16.1739 9.99669 16.1739 9.42837V8H14.087C13.5335 8 13.0027 8.22571 12.6111 8.62749C12.2198 9.02928 12 9.57456 12 10.1429L12 45.8571ZM23.1302 34.4287C24.2372 34.4287 25.299 34.8802 26.0816 35.684C26.8645 36.4876 27.3041 37.5778 27.3041 38.7145C27.3041 39.8511 26.8645 40.9414 26.0816 41.745C25.299 42.5488 24.2372 43.0002 23.1302 43.0002C22.0232 43.0002 20.9617 42.5488 20.1788 41.745C19.3962 40.9414 18.9563 39.8511 18.9563 38.7145C18.9575 37.5782 19.3977 36.4888 20.18 35.6852C20.9626 34.8817 22.0235 34.43 23.1302 34.4287ZM18.9563 45.1431H27.3041C27.6884 45.1431 27.9999 45.463 27.9999 45.8573C27.9999 46.2519 27.6884 46.5718 27.3041 46.5718H18.9563C18.5723 46.5718 18.2607 46.2519 18.2607 45.8573C18.2607 45.463 18.5723 45.1431 18.9563 45.1431ZM31.478 10.1432C31.478 9.74856 31.7895 9.42869 32.1738 9.42869C32.5579 9.42869 32.8694 9.74856 32.8694 10.1432V10.8574C32.8694 11.252 32.5579 11.5715 32.1738 11.5715C31.7895 11.5715 31.478 11.252 31.478 10.8574V10.1432ZM13.3916 10.1432C13.3916 9.74856 13.7028 9.42869 14.0871 9.42869C14.4714 9.42869 14.7827 9.74856 14.7827 10.1432V10.8574C14.7827 11.252 14.4714 11.5715 14.0871 11.5715C13.7028 11.5715 13.3916 11.252 13.3916 10.8574V10.1432Z" fill="#1C1C1C"/>
</svg>
