<svg width="24" height="24" viewBox="0 0 24 24" fill="none" xmlns="http://www.w3.org/2000/svg">
<path d="M20.1663 16.6208C18.8568 15.2837 17.5409 13.9498 16.1968 12.6474C15.5058 11.9788 14.6422 11.818 13.7283 12.1176C13.4802 12.1996 13.3546 12.1491 13.1944 11.9851C12.5475 11.3229 10.2235 9.0618 10.0194 8.46578C9.89065 8.09367 9.96602 7.56703 9.96602 7.56703C10.1576 6.80072 9.79015 6.35607 9.1809 5.9398C8.10057 5.20187 7.07048 4.38826 6.0404 3.58096C5.78602 3.38228 5.629 3.37913 5.42801 3.56519C5.39346 3.59357 5.35578 3.62511 5.31809 3.6661C4.80305 4.21482 4.27545 4.75092 3.72586 5.26494C3.47148 5.50461 3.4495 5.66544 3.67247 5.94926C4.47644 6.98362 5.28669 8.01798 6.02156 9.1028C6.43611 9.71458 6.87891 10.0835 7.64205 9.89118C8.03776 9.78396 8.36123 9.83442 8.65329 9.97948C8.85742 10.0804 9.04271 10.2318 9.22486 10.4084C9.30023 10.4809 11.0872 12.3099 11.9225 13.133C12.1267 13.3348 12.1989 13.4957 12.0953 13.8079C11.8126 14.6467 11.9697 15.4698 12.5695 16.1036C13.9042 17.5133 15.286 18.8788 16.671 20.2411C17.1326 20.6952 17.9083 20.6731 18.3731 20.2253C18.9918 19.6325 19.6011 19.027 20.1883 18.4026C20.7034 17.8539 20.7002 17.1569 20.1726 16.6177L20.1663 16.6208Z" fill="#FFA703"/>
<path d="M13.4331 10.8876C13.5399 10.9948 13.6247 11.1178 13.8256 11.0831C15.2671 10.8308 16.4228 11.3606 17.3587 12.436C17.5723 12.6788 17.7418 12.641 17.9837 12.5117C19.6889 11.6035 20.4552 10.1339 20.5589 8.25756C20.5777 7.95167 20.3767 6.87946 20.1161 6.7754C19.8303 6.66187 19.6607 6.87316 19.488 7.04345C19.0985 7.42502 18.7091 7.80345 18.3228 8.18818C17.9397 8.54453 17.3461 9.07748 17.142 9.15001C16.985 9.20677 16.6647 9.24461 16.3412 9.20993C15.9957 9.15001 15.6471 9.10271 15.3017 9.04594C15.1666 9.02387 15.0159 9.01441 14.9845 8.8315C14.9248 8.46884 14.8683 8.10619 14.8086 7.74038L14.8149 7.74669C14.7364 7.37141 14.7584 7.01191 14.8243 6.82585C14.906 6.59564 15.5655 5.87349 15.9047 5.51083C16.2438 5.16394 16.583 4.8139 16.9253 4.47016C17.1012 4.29041 17.2833 4.11697 17.1828 3.8363C17.0823 3.56194 16.8248 3.51464 16.5861 3.48626C16.0837 3.42634 15.5875 3.41057 15.0756 3.45788C12.8427 3.66601 10.905 5.78203 10.9113 8.03681C10.9113 8.26071 10.9647 8.4247 11.1311 8.58868C11.9068 9.34868 12.6668 10.1245 13.4331 10.8908V10.8876Z" fill="#FFA703"/>
<path d="M11.0934 13.9243C11.1593 13.7351 11.0745 13.5995 10.9363 13.4639C10.4244 12.9625 9.91569 12.4548 9.41635 11.9376C9.25304 11.7673 9.13684 11.7295 8.94841 11.9187C7.29652 13.609 5.62263 15.2772 3.98644 16.9832C3.34264 17.6549 3.28925 18.4906 3.65668 19.3232C4.02412 20.1526 4.70561 20.553 5.78594 20.553C6.28528 20.5751 6.81602 20.2787 7.28081 19.8151C8.50561 18.5884 9.7304 17.3617 10.9678 16.1507C11.2096 15.9142 11.2787 15.7092 11.1844 15.3718C11.0525 14.9051 10.9238 14.4226 11.0965 13.9275L11.0934 13.9243ZM5.63519 19.134C5.26462 19.1403 4.91602 18.7902 4.90974 18.4023C4.90346 17.9766 5.19239 17.677 5.61321 17.6707C6.01833 17.6644 6.34809 17.9798 6.35123 18.3771C6.35751 18.7524 5.99949 19.1277 5.63519 19.134V19.134Z" fill="#FFA703"/>
</svg>
