<svg width="24" height="24" viewBox="0 0 24 24" fill="none" xmlns="http://www.w3.org/2000/svg">
<path d="M20.312 8.53278L15.4765 3.68612C15.2563 3.46539 14.9382 3.37956 14.6385 3.4562C14.3388 3.53284 14.1033 3.76582 14.0176 4.06625C13.932 4.36361 14.0146 4.68549 14.2286 4.90928L4.44149 14.6731C3.56982 15.5437 3.22727 16.8129 3.54536 18.0054C3.86038 19.1979 4.7871 20.1298 5.97379 20.4517C7.16049 20.7736 8.42976 20.4364 9.30143 19.5688L19.1039 9.78967C19.3302 10.0012 19.6483 10.0748 19.945 9.98893C20.2416 9.90309 20.468 9.66398 20.5444 9.36662C20.6209 9.06619 20.5322 8.75044 20.315 8.53278H20.312ZM10.794 10.9791C10.9805 10.9791 11.1518 11.0925 11.2222 11.2673C11.2956 11.442 11.2558 11.6413 11.1212 11.7731C10.9897 11.9049 10.7879 11.9448 10.6166 11.8743C10.4422 11.8037 10.3291 11.6321 10.3291 11.4451C10.3291 11.1876 10.5371 10.9791 10.794 10.9791ZM8.34412 19.2163C8.20343 19.3542 7.9771 19.3542 7.83947 19.2132C7.70184 19.0722 7.70184 18.8454 7.84253 18.7074L15.8802 10.7676C14.6446 10.4242 12.2743 9.77127 10.9438 9.41873L14.8434 5.52852L18.4891 9.18268L8.34412 19.2132V19.2163ZM12.7912 11.4451C12.7912 11.2581 12.9043 11.0864 13.0787 11.0159C13.253 10.9454 13.4518 10.9852 13.5833 11.1171C13.7148 11.2489 13.7546 11.4512 13.6842 11.6229C13.6108 11.7976 13.4426 11.911 13.2561 11.911C12.9991 11.911 12.7912 11.7026 12.7912 11.4451V11.4451Z" fill="#FAFAFA"/>
</svg>
