<svg width="57" height="56" viewBox="0 0 57 56" fill="none" xmlns="http://www.w3.org/2000/svg">
<path d="M52.2258 29.4435C51.6087 24.7488 50.1347 20.3643 47.3924 16.4707C45.9869 14.4722 44.1872 12.9648 41.7791 12.3359C41.1535 12.1723 40.4936 12.112 39.8509 12H39.191C38.454 12.1206 37.7084 12.2067 36.98 12.3704C35.3774 12.7322 33.9034 13.4041 32.5665 14.343C31.5552 15.0494 30.4583 15.4112 29.2328 15.3681C28.393 15.3423 27.536 15.4198 26.7133 15.2733C26.0277 15.1527 25.3164 14.8857 24.7336 14.5067C22.5654 13.0768 20.2601 12.112 17.6292 12.0517C17.5692 12.0517 17.5092 12.0172 17.4492 12H17.2607C16.7551 12.0775 16.2409 12.1206 15.7353 12.224C13.2671 12.715 11.3818 14.1363 9.89917 16.1089C7.8167 18.8654 6.47123 21.9837 5.60567 25.3173C4.32019 30.2446 4.12308 35.2235 5.18574 40.2197C5.32286 40.8829 5.5971 41.5462 5.94846 42.1234C7.0197 43.9237 9.265 44.5611 11.0304 43.4499C12.3073 42.6488 13.49 41.6754 14.5869 40.6417C15.9238 39.3755 17.1407 37.98 18.3833 36.6104C19.1289 35.7834 20.0202 35.3441 21.1343 35.3441C26.0705 35.3441 31.0068 35.3441 35.9344 35.3441C37.0142 35.3441 37.8969 35.7576 38.6082 36.5759C40.4251 38.6777 42.2847 40.7193 44.47 42.4507C44.9071 42.7953 45.3699 43.1312 45.8584 43.4069C47.9065 44.5784 50.2204 43.8806 51.3002 41.7702C51.883 40.6331 52.0458 39.3841 52.2172 38.1437C52.3372 37.2823 52.4143 36.4036 52.5 35.5336V32.0535C52.4057 31.1835 52.3286 30.3135 52.2172 29.4435H52.2258ZM22.8225 26.0237C22.7626 26.1271 22.5483 26.196 22.4026 26.196C21.4514 26.2132 20.5001 26.196 19.4631 26.196C19.4631 26.6611 19.4631 27.1091 19.4631 27.557C19.4631 28.0566 19.4803 28.5648 19.4546 29.0644C19.4546 29.2109 19.3689 29.4262 19.2575 29.4865C18.3491 29.9689 17.4235 30.0551 16.4808 29.5813C16.2323 29.4607 16.1209 29.2798 16.1295 28.9869C16.1466 28.0824 16.1295 27.178 16.1295 26.2046C15.2382 26.2046 14.3898 26.1701 13.5328 26.2132C13.07 26.239 12.8472 26.0581 12.7187 25.6447C12.4616 24.8436 12.453 24.0511 12.7529 23.25C12.8643 22.9485 13.0186 22.8106 13.3614 22.8193C14.2955 22.8451 15.2296 22.8279 16.2323 22.8279C16.2323 21.8286 16.2494 20.8897 16.2237 19.9508C16.2152 19.589 16.3523 19.4512 16.6608 19.365C17.5349 19.1238 18.3833 19.1755 19.2403 19.4512C19.5146 19.5373 19.5917 19.6837 19.5917 19.968C19.566 20.7519 19.5746 21.5358 19.5746 22.3196C19.5746 22.4747 19.5831 22.6211 19.6003 22.8279C20.5172 22.8279 21.3999 22.8451 22.2826 22.8279C22.5997 22.8193 22.754 22.9399 22.8997 23.2069C23.4396 24.1717 23.311 25.1106 22.814 26.0237H22.8225ZM37.8112 17.4096C39.2424 17.3924 40.4165 18.5467 40.4251 19.9852C40.4336 21.4496 39.2767 22.6297 37.8284 22.6297C36.3801 22.6297 35.2489 21.4755 35.2403 20.0283C35.2403 18.5811 36.3629 17.4269 37.8112 17.4096V17.4096ZM37.8112 29.8139C36.3629 29.8139 35.2403 28.6596 35.2403 27.2038C35.2403 25.7308 36.3972 24.5938 37.8712 24.611C39.3024 24.6282 40.4336 25.7911 40.4251 27.2469C40.4165 28.6854 39.2596 29.8225 37.8112 29.8225V29.8139ZM44.3072 26.4975C42.8589 26.4975 41.7105 25.3087 41.7191 23.8443C41.7362 22.4058 42.9103 21.2515 44.3415 21.2773C45.7812 21.2946 46.9124 22.4575 46.9039 23.9046C46.9039 25.3432 45.7384 26.5061 44.3072 26.4975Z" fill="#1C1C1C"/>
</svg>
