<svg width="57" height="56" viewBox="0 0 57 56" fill="none" xmlns="http://www.w3.org/2000/svg">
<path d="M44.1081 18.825C34.6754 18.825 25.2426 18.825 15.8099 18.825C15.4401 18.825 15.0631 18.8646 14.7078 18.7985C14.077 18.6796 13.6855 18.3295 13.7508 17.6952C13.8088 17.127 14.1713 16.8297 14.7876 16.7967C15.1139 16.7769 15.4401 16.7901 15.7736 16.7901C25.0396 16.7901 34.3128 16.7901 43.5788 16.7901C43.9051 16.7901 44.2386 16.7901 44.5649 16.7901C45.5509 16.7636 46.0584 16.3408 46.0584 15.4026C46.0584 13.4074 44.4706 12.0464 41.933 12.0398C32.5727 12.0001 23.2198 12.0596 13.874 12.0001C10.6186 11.9803 8.45076 14.154 8.50151 16.9751C8.64652 24.2954 8.66102 31.6157 8.50151 38.9361C8.42901 42.1073 10.9739 44.0894 14.019 43.9969C18.9783 43.8515 23.9448 43.9573 28.9041 43.9573C34.0736 43.9573 39.2358 43.9705 44.4054 43.9506C47.0952 43.9374 48.4873 42.6491 48.4946 40.2244C48.5018 34.3972 48.5018 28.57 48.4946 22.7428C48.4946 20.1199 47.0372 18.8184 44.1081 18.8184V18.825ZM40.9687 33.5714C39.7869 33.5714 38.6196 32.4944 38.6268 31.4109C38.6268 30.2944 39.7361 29.3166 40.9977 29.3166C42.2737 29.3166 43.325 30.2613 43.3178 31.4175C43.3178 32.5143 42.165 33.5647 40.9759 33.5647L40.9687 33.5714Z" fill="#1C1C1C"/>
</svg>
