<svg width="24" height="24" viewBox="0 0 24 24" fill="none" xmlns="http://www.w3.org/2000/svg">
<path d="M15.2052 20.5714H16.5469C16.6945 20.5709 16.8195 20.4597 16.8408 20.3096C16.979 19.255 17.2109 18.2154 17.5337 17.2041H14.218C14.5411 18.2152 14.7732 19.2547 14.9115 20.3094C14.9327 20.4594 15.0578 20.5709 15.2054 20.5714L15.2052 20.5714Z" fill="#FAFAFA"/>
<path d="M11.1057 16.5921C11.1057 17.2683 10.5718 17.8166 9.91308 17.8166C9.25451 17.8166 8.72058 17.2683 8.72058 16.5921C8.72058 15.9159 9.25451 15.3677 9.91308 15.3677C10.5718 15.3677 11.1057 15.9159 11.1057 16.5921Z" fill="#FAFAFA"/>
<path d="M12.0001 11.3878H12.2982V11.0817C12.2982 10.7569 12.4239 10.4455 12.6475 10.2159C12.8712 9.98628 13.1745 9.85724 13.4907 9.85724H13.5843C13.6338 9.71913 13.7056 9.50492 13.7888 9.21714L13.7889 8.63266C13.7889 8.47033 13.726 8.31454 13.6142 8.19975C13.5024 8.08496 13.3507 8.02051 13.1926 8.02051H6.93176C6.77366 8.02051 6.62193 8.08495 6.51014 8.19975C6.39835 8.31454 6.33545 8.47034 6.33545 8.63266V12.3061C6.33545 12.4686 6.39834 12.6243 6.51014 12.7391C6.62194 12.854 6.77367 12.9184 6.93176 12.9184H12.2982V12.0001H12.0001C11.8354 12.0001 11.7019 11.863 11.7019 11.694C11.7019 11.5249 11.8354 11.3878 12.0001 11.3878L12.0001 11.3878ZM7.8261 12.0001H7.52801C7.3633 12.0001 7.22979 11.863 7.22979 11.694C7.22979 11.5249 7.3633 11.3878 7.52801 11.3878H7.8261C7.9908 11.3878 8.12419 11.5249 8.12419 11.694C8.12419 11.863 7.9908 12.0001 7.8261 12.0001ZM7.52801 10.4694C7.36979 10.4694 7.21818 10.405 7.10639 10.2902C6.99446 10.1754 6.9317 10.0196 6.9317 9.85725V9.24496C6.9317 9.08263 6.99446 8.92684 7.10639 8.81205C7.21819 8.69725 7.36979 8.63267 7.52801 8.63267H8.42241C8.58051 8.63267 8.73224 8.69725 8.84403 8.81205C8.95583 8.92684 9.01859 9.08264 9.01859 9.24496V9.85725C9.01859 10.0196 8.95583 10.1754 8.84403 10.2902C8.73223 10.405 8.5805 10.4694 8.42241 10.4694H7.52801ZM9.31682 12.0001H9.0186C8.85402 12.0001 8.72051 11.863 8.72051 11.694C8.72051 11.5249 8.85402 11.3878 9.0186 11.3878H9.31682C9.4814 11.3878 9.61492 11.5249 9.61492 11.694C9.61492 11.863 9.4814 12.0001 9.31682 12.0001ZM10.8075 12.0001H10.5093C10.3446 12.0001 10.2112 11.863 10.2112 11.694C10.2112 11.5249 10.3446 11.3878 10.5093 11.3878H10.8074C10.9721 11.3878 11.1056 11.5249 11.1056 11.694C11.1056 11.863 10.9721 12.0001 10.8074 12.0001H10.8075ZM11.4039 9.24495H11.4037C11.239 9.24495 11.1056 9.10786 11.1056 8.93887C11.1056 8.76975 11.239 8.63266 11.4037 8.63266H12.8945C13.059 8.63266 13.1926 8.76975 13.1926 8.93887C13.1926 9.10786 13.059 9.24495 12.8945 9.24495H11.4039Z" fill="#FAFAFA"/>
<path d="M7.52795 9.24512H8.42262V9.85741H7.52795V9.24512Z" fill="#FAFAFA"/>
<path d="M17.5336 9.85765C17.2106 8.84639 16.9785 7.80696 16.8401 6.75224C16.8189 6.60221 16.6939 6.49075 16.5462 6.49023H15.2046C15.1688 6.49023 15.1334 6.49702 15.0999 6.51009L15.0961 6.51227C14.997 6.55237 14.9263 6.64385 14.9107 6.75199C14.7725 7.80667 14.5406 8.84627 14.2178 9.85766L17.5336 9.85765ZM15.5776 7.40862C15.5776 7.2395 15.711 7.10254 15.8757 7.10254C16.0404 7.10254 16.1738 7.2395 16.1738 7.40862V7.7147C16.1738 7.88381 16.0404 8.0209 15.8757 8.0209C15.711 8.0209 15.5776 7.88381 15.5776 7.7147V7.40862Z" fill="#FAFAFA"/>
<path d="M13.4906 16.5922H18.261C18.4191 16.5922 18.5708 16.5277 18.6826 16.4128C18.7944 16.298 18.8572 16.1423 18.8572 15.9799V11.082C18.8572 10.9197 18.7944 10.7639 18.6826 10.6491C18.5708 10.5343 18.4191 10.4697 18.261 10.4697H13.4906C13.3325 10.4697 13.1808 10.5343 13.069 10.6491C12.9572 10.7639 12.8944 10.9197 12.8944 11.082V15.9799C12.8944 16.1423 12.9572 16.298 13.069 16.4128C13.1808 16.5277 13.3325 16.5922 13.4906 16.5922V16.5922ZM15.5775 12.0567L15.5776 12.0004C15.5776 11.8312 15.711 11.6943 15.8757 11.6943C16.0404 11.6943 16.1738 11.8312 16.1738 12.0004V12.0616C16.3737 12.1321 16.5428 12.2731 16.6509 12.4595C16.7272 12.6052 16.6771 12.7869 16.5374 12.8697C16.3979 12.9524 16.2196 12.9064 16.1348 12.7656C16.0816 12.6711 15.9833 12.6126 15.8769 12.6126C15.7704 12.6125 15.672 12.6707 15.6187 12.7652C15.5653 12.8598 15.565 12.9764 15.6181 13.0712C15.6711 13.166 15.7693 13.2246 15.8757 13.2248C16.159 13.2243 16.4258 13.3619 16.5943 13.5956C16.763 13.8293 16.8136 14.1313 16.7306 14.4094C16.6477 14.6874 16.4411 14.9087 16.1738 15.0053V15.0615C16.1738 15.2307 16.0404 15.3678 15.8757 15.3678C15.711 15.3678 15.5776 15.2307 15.5776 15.0615V15.0003C15.3777 14.9298 15.2087 14.7889 15.1006 14.6024C15.0242 14.4567 15.0744 14.275 15.214 14.1922C15.3535 14.1095 15.5318 14.1556 15.6167 14.2963C15.6698 14.391 15.7681 14.4492 15.8746 14.4494C15.981 14.4494 16.0795 14.3912 16.1327 14.2967C16.1862 14.2021 16.1864 14.0855 16.1334 13.9907C16.0803 13.896 15.9821 13.8375 15.8757 13.8371C15.5925 13.8376 15.3257 13.7 15.1571 13.4664C14.9884 13.2327 14.9379 12.9306 15.0209 12.6526C15.1037 12.3745 15.3103 12.1533 15.5776 12.0567H15.5775ZM13.4906 11.6943C13.4906 11.5318 13.5535 11.3761 13.6653 11.2614C13.7771 11.1464 13.9288 11.082 14.0869 11.082H14.6832C14.8478 11.082 14.9813 11.2191 14.9813 11.3881C14.9813 11.5572 14.8478 11.6943 14.6832 11.6943H14.0869V13.531C14.0869 13.7 13.9534 13.8371 13.7888 13.8371C13.6241 13.8371 13.4906 13.7 13.4906 13.531L13.4906 11.6943Z" fill="#FAFAFA"/>
<path d="M7.82604 4.34708H12.0001C12.079 4.34708 12.1549 4.3148 12.2108 4.2574C12.2667 4.2 12.2981 4.1221 12.2981 4.04087V3.42871H7.52808V4.04087C7.52808 4.1221 7.5594 4.2 7.6153 4.2574C7.67132 4.3148 7.74706 4.34708 7.82617 4.34708H7.82604Z" fill="#FAFAFA"/>
<path d="M5.14283 19.6532C5.14283 19.8967 5.23704 20.1304 5.40474 20.3026C5.57257 20.4748 5.80004 20.5716 6.03725 20.5716H13.7889C13.9803 20.5711 14.1665 20.5074 14.3198 20.3898C14.1808 19.3051 13.9346 18.2377 13.5849 17.2043H13.4907C13.1745 17.2043 12.8711 17.0753 12.6474 16.8455C12.4238 16.6159 12.2982 16.3045 12.2982 15.9797V13.5308H6.93172C6.6154 13.5308 6.31208 13.4018 6.08848 13.172C5.86488 12.9425 5.73921 12.631 5.73921 12.3062V8.63274C5.73921 8.30808 5.86487 7.9966 6.08848 7.76691C6.31208 7.53732 6.61541 7.40828 6.93172 7.40828H13.1926C13.5526 7.40931 13.8926 7.5783 14.1168 7.86747C14.1893 7.50721 14.2596 7.10706 14.3216 6.66506C14.3571 6.42035 14.4875 6.20076 14.6833 6.05647V4.34709C14.6833 4.10353 14.589 3.86983 14.4213 3.69764C14.2536 3.52544 14.0261 3.42871 13.7889 3.42871H12.8945V4.04087C12.8945 4.28443 12.8002 4.51813 12.6325 4.69032C12.4647 4.86252 12.2373 4.95925 12.0001 4.95925H7.82606C7.58886 4.95925 7.36138 4.86252 7.19355 4.69032C7.02585 4.51813 6.93165 4.28444 6.93165 4.04087V3.42871H6.03724C5.80003 3.42871 5.57256 3.52544 5.40473 3.69764C5.23703 3.86983 5.14282 4.10352 5.14282 4.34709L5.14283 19.6532ZM9.91291 14.7553C10.3873 14.7553 10.8424 14.9488 11.1778 15.2933C11.5133 15.6377 11.7017 16.1049 11.7017 16.5921C11.7017 17.0792 11.5133 17.5464 11.1778 17.8908C10.8424 18.2354 10.3873 18.4288 9.91291 18.4288C9.43849 18.4288 8.98355 18.2353 8.64802 17.8908C8.31262 17.5464 8.12409 17.0792 8.12409 16.5921C8.12459 16.1051 8.31325 15.6382 8.64853 15.2938C8.98394 14.9494 9.43861 14.7558 9.91291 14.7553ZM8.12409 19.3472H11.7017C11.8664 19.3472 11.9999 19.4843 11.9999 19.6533C11.9999 19.8224 11.8664 19.9595 11.7017 19.9595H8.12409C7.95951 19.9595 7.826 19.8224 7.826 19.6533C7.826 19.4843 7.95951 19.3472 8.12409 19.3472ZM13.4905 4.34721C13.4905 4.1781 13.6241 4.04101 13.7888 4.04101C13.9533 4.04101 14.0869 4.1781 14.0869 4.34721V4.65329C14.0869 4.82241 13.9533 4.95937 13.7888 4.95937C13.6241 4.95937 13.4905 4.82241 13.4905 4.65329V4.34721ZM5.73921 4.34721C5.73921 4.1781 5.8726 4.04101 6.03731 4.04101C6.20201 4.04101 6.3354 4.1781 6.3354 4.34721V4.65329C6.3354 4.82241 6.20201 4.95937 6.03731 4.95937C5.8726 4.95937 5.73921 4.82241 5.73921 4.65329V4.34721Z" fill="#FAFAFA"/>
</svg>
