<svg width="32" height="32" viewBox="0 0 32 32" fill="none" xmlns="http://www.w3.org/2000/svg">
<g clip-path="url(#clip0_99_17797)">
<path fill-rule="evenodd" clip-rule="evenodd" d="M16 32C24.8667 32 32 24.8667 32 16C32 7.13328 24.8667 0 16 0C7.13328 0 0 7.13328 0 16C0 24.8667 7.13328 32 16 32ZM20.4001 18.5333C20.4001 16.2 19.0001 15.4 16.2001 15.0667C14.2001 14.8 13.8001 14.2667 13.8001 13.3333C13.8001 12.3999 14.4668 11.8 15.8001 11.8C17.0001 11.8 17.6668 12.2 18.0001 13.2C18.0668 13.4 18.2668 13.5333 18.4668 13.5333H19.5334C19.8001 13.5333 20.0001 13.3333 20.0001 13.0667V13C19.7334 11.5333 18.5334 10.4 17.0001 10.2667V8.66674C17.0001 8.40002 16.8001 8.20002 16.4668 8.1333H15.4668C15.2001 8.1333 15.0001 8.3333 14.9334 8.66674V10.2C12.9334 10.4667 11.6668 11.8 11.6668 13.4667C11.6668 15.6667 13.0001 16.5333 15.8001 16.8667C17.6668 17.2 18.2668 17.6 18.2668 18.6667C18.2668 19.7335 17.3334 20.4667 16.0668 20.4667C14.3334 20.4667 13.7334 19.7333 13.5334 18.7333C13.4668 18.4667 13.2668 18.3333 13.0668 18.3333H11.9334C11.6668 18.3333 11.4668 18.5333 11.4668 18.8V18.8667C11.7334 20.5333 12.8001 21.7333 15.0001 22.0667V23.6667C15.0001 23.9333 15.2001 24.1333 15.5334 24.2H16.5334C16.8001 24.2 17.0001 24 17.0668 23.6667V22.0667C19.0668 21.7333 20.4001 20.3333 20.4001 18.5333ZM6.66672 12.7332C4.73328 17.8667 7.4 23.6667 12.6 25.5332C12.8 25.6667 13 25.9332 13 26.1332V27.0667C13 27.1999 13 27.2667 12.9333 27.3332C12.8667 27.5999 12.6 27.7332 12.3333 27.5999C8.6 26.3999 5.73328 23.5332 4.53328 19.7999C2.53328 13.4667 6 6.73323 12.3333 4.73323C12.4 4.66667 12.5333 4.66667 12.6 4.66667C12.8667 4.73323 13 4.93323 13 5.19995V6.13323C13 6.46667 12.8667 6.66667 12.6 6.79995C9.86672 7.79995 7.66672 9.93323 6.66672 12.7332ZM19.0667 4.99995C19.1333 4.73323 19.4 4.59995 19.6667 4.73323C23.3333 5.93323 26.2667 8.79995 27.4667 12.5999C29.4667 18.9332 26 25.6667 19.6667 27.6667C19.6 27.7332 19.4667 27.7332 19.4 27.7332C19.1333 27.6667 19 27.4667 19 27.1999V26.2667C19 25.9332 19.1333 25.7332 19.4 25.5999C22.1333 24.5999 24.3333 22.4667 25.3333 19.6667C27.2667 14.5332 24.6 8.73323 19.4 6.86667C19.2 6.73323 19 6.46667 19 6.19995V5.26667C19 5.13323 19 5.06667 19.0667 4.99995Z" fill="#FAFAFA"/>
</g>
<defs>
<clipPath id="clip0_99_17797">
<rect width="32" height="32" fill="white"/>
</clipPath>
</defs>
</svg>
