<svg width="32" height="32" viewBox="0 0 32 32" fill="none" xmlns="http://www.w3.org/2000/svg">
<path fill-rule="evenodd" clip-rule="evenodd" d="M0.0247203 14.4652L5.85944 2.13752C5.87854 2.096 5.90918 2.06092 5.94765 2.03653C5.98613 2.01213 6.0308 1.99945 6.07628 2.00002H25.926C25.9713 1.9999 26.0156 2.01289 26.0537 2.03744C26.0919 2.06199 26.1221 2.09707 26.141 2.13847L31.9757 14.4662C31.9979 14.512 32.0049 14.5638 31.9958 14.614C31.9866 14.6641 31.9617 14.71 31.9248 14.745L16.1666 29.9327C16.1218 29.9759 16.0622 30 16.0002 30C15.9382 30 15.8786 29.9759 15.8338 29.9327L0.0756292 14.744C0.0386765 14.7091 0.0138013 14.6632 0.00464143 14.613C-0.00451845 14.5629 0.00251748 14.5111 0.0247203 14.4652ZM16.0231 15.7748C17.3269 15.7748 17.9115 15.7397 18.0246 15.7312L18.0208 15.7302C22.0209 15.5519 25.0048 14.8502 25.0048 14.0119C25.0048 13.1736 22.02 12.4719 18.0208 12.2927V15.0332C17.9086 15.0436 17.2855 15.0958 16.041 15.0958C15.004 15.0958 14.2536 15.0512 13.9915 15.0323V12.2908C9.98381 12.471 6.99244 13.1717 6.99244 14.0119C6.99244 14.8521 9.98381 15.5538 13.9915 15.7312C14.2498 15.7435 14.9861 15.7748 16.0231 15.7748ZM18.0246 12.0082V12.0091L18.0236 12.0082C18.024 12.0082 18.0243 12.0082 18.0246 12.0082ZM18.0246 9.55592V12.0082C22.5522 12.2188 25.9541 13.1215 25.9541 14.2035C25.9541 15.2855 22.5489 16.1882 18.0236 16.3978V24.2619H13.9905V16.4006C9.45492 16.1901 6.04403 15.2874 6.04403 14.2044C6.04403 13.1215 9.45492 12.2178 13.9905 12.0082V9.55592H8.41035V5.81494H23.6057V9.55592H18.0246Z" fill="#FAFAFA"/>
</svg>
