<svg width="18" height="18" viewBox="0 0 18 18" fill="none" xmlns="http://www.w3.org/2000/svg">
<path d="M5.41337 15.7038L5.29604 16.4446H5.29605L5.41337 15.7038ZM2.29617 12.5866L3.03693 12.4693L2.29617 12.5866ZM15.7038 12.5866L16.4446 12.704V12.704L15.7038 12.5866ZM12.5866 15.7038L12.704 16.4446H12.704L12.5866 15.7038ZM15.5999 7.79957C15.3512 7.46838 14.881 7.40156 14.5498 7.65032C14.2186 7.89909 14.1518 8.36924 14.4006 8.70043L15.5999 7.79957ZM3.5994 8.70043C3.84817 8.36924 3.78135 7.89909 3.45016 7.65032C3.11897 7.40156 2.64882 7.46838 2.40005 7.79957L3.5994 8.70043ZM9.75 2.25C9.75 1.83579 9.41421 1.5 9 1.5C8.58579 1.5 8.25 1.83579 8.25 2.25H9.75ZM6.58768 9.28403C6.33033 8.95946 5.8586 8.90497 5.53403 9.16232C5.20946 9.41966 5.15497 9.8914 5.41232 10.216L6.58768 9.28403ZM7.04838 11.0722L6.4607 11.5382L7.04838 11.0722ZM10.9516 11.0722L10.3639 10.6063L10.9516 11.0722ZM12.5877 10.216C12.845 9.8914 12.7905 9.41966 12.466 9.16232C12.1414 8.90497 11.6697 8.95946 11.4123 9.28403L12.5877 10.216ZM8.812 12.7351L8.69399 13.4757L8.69399 13.4757L8.812 12.7351ZM9.188 12.7351L9.30601 13.4757L9.30601 13.4757L9.188 12.7351ZM15 10.5V11.25H16.5V10.5H15ZM11.25 15H6.75V16.5H11.25V15ZM3 11.25V10.5H1.5V11.25H3ZM6.75 15C6.02459 15 5.7492 14.9977 5.5307 14.9631L5.29605 16.4446C5.66054 16.5023 6.08191 16.5 6.75 16.5V15ZM1.5 11.25C1.5 11.9181 1.49767 12.3395 1.5554 12.704L3.03693 12.4693C3.00233 12.2508 3 11.9754 3 11.25H1.5ZM5.5307 14.9631C4.24702 14.7598 3.24025 13.753 3.03693 12.4693L1.5554 12.704C1.86037 14.6295 3.37053 16.1396 5.29604 16.4446L5.5307 14.9631ZM15 11.25C15 11.9754 14.9977 12.2508 14.9631 12.4693L16.4446 12.704C16.5023 12.3395 16.5 11.9181 16.5 11.25H15ZM11.25 16.5C11.9181 16.5 12.3395 16.5023 12.704 16.4446L12.4693 14.9631C12.2508 14.9977 11.9754 15 11.25 15V16.5ZM14.9631 12.4693C14.7598 13.753 13.753 14.7598 12.4693 14.9631L12.704 16.4446C14.6295 16.1396 16.1396 14.6295 16.4446 12.704L14.9631 12.4693ZM16.5 10.5C16.5 9.48782 16.1649 8.55173 15.5999 7.79957L14.4006 8.70043C14.7772 9.20176 15 9.82377 15 10.5H16.5ZM3 10.5C3 9.82377 3.22284 9.20176 3.5994 8.70043L2.40005 7.79957C1.83508 8.55173 1.5 9.48782 1.5 10.5H3ZM8.25 2.25V12H9.75V2.25H8.25ZM5.41232 10.216L6.4607 11.5382L7.63607 10.6063L6.58768 9.28403L5.41232 10.216ZM11.5393 11.5382L12.5877 10.216L11.4123 9.28403L10.3639 10.6063L11.5393 11.5382ZM6.4607 11.5382C6.86735 12.0511 7.21143 12.4869 7.5213 12.7979C7.83451 13.1124 8.20574 13.3979 8.69399 13.4757L8.93001 11.9944C8.90874 11.991 8.8162 11.9724 8.584 11.7393C8.34845 11.5029 8.06548 11.1478 7.63607 10.6063L6.4607 11.5382ZM10.3639 10.6063C9.93452 11.1478 9.65155 11.5029 9.416 11.7393C9.1838 11.9724 9.09126 11.991 9.06999 11.9944L9.30601 13.4757C9.79426 13.3979 10.1655 13.1124 10.4787 12.7979C10.7886 12.4869 11.1326 12.0511 11.5393 11.5382L10.3639 10.6063ZM8.69399 13.4757C8.7953 13.4919 8.89754 13.5 9 13.5V12C8.97687 12 8.95354 11.9982 8.93001 11.9944L8.69399 13.4757ZM9 13.5C9.10246 13.5 9.2047 13.4919 9.30601 13.4757L9.06999 11.9944C9.04646 11.9982 9.02313 12 9 12V13.5ZM8.25 12V12.75H9.75V12H8.25Z" fill="#1C1C1C"/>
</svg>
