<svg width="32" height="32" viewBox="0 0 32 32" fill="none" xmlns="http://www.w3.org/2000/svg">
<path d="M16.7501 10.6665C16.7501 10.2523 16.4143 9.9165 16.0001 9.9165C15.5859 9.9165 15.2501 10.2523 15.2501 10.6665H16.7501ZM21.8661 17.5945C22.1577 17.3003 22.1556 16.8254 21.8614 16.5338C21.5672 16.2422 21.0923 16.2443 20.8007 16.5385L21.8661 17.5945ZM19.4696 18.947L20.0023 19.475L20.0023 19.475L19.4696 18.947ZM12.5305 18.947L11.9979 19.475L11.9979 19.475L12.5305 18.947ZM11.1994 16.5385C10.9079 16.2443 10.433 16.2422 10.1388 16.5338C9.84459 16.8254 9.84247 17.3003 10.1341 17.5945L11.1994 16.5385ZM16.3343 21.312L16.4291 22.0559L16.4291 22.0559L16.3343 21.312ZM15.6659 21.312L15.571 22.0559L15.571 22.0559L15.6659 21.312ZM28.5834 15.9998C28.5834 22.9494 22.9497 28.5832 16.0001 28.5832V30.0832C23.7781 30.0832 30.0834 23.7778 30.0834 15.9998H28.5834ZM16.0001 28.5832C9.0505 28.5832 3.41675 22.9494 3.41675 15.9998H1.91675C1.91675 23.7778 8.22207 30.0832 16.0001 30.0832V28.5832ZM3.41675 15.9998C3.41675 9.05025 9.0505 3.4165 16.0001 3.4165V1.9165C8.22207 1.9165 1.91675 8.22183 1.91675 15.9998H3.41675ZM16.0001 3.4165C22.9497 3.4165 28.5834 9.05025 28.5834 15.9998H30.0834C30.0834 8.22183 23.7781 1.9165 16.0001 1.9165V3.4165ZM15.2501 10.6665V20.2665H16.7501V10.6665H15.2501ZM20.8007 16.5385L18.9369 18.419L20.0023 19.475L21.8661 17.5945L20.8007 16.5385ZM13.0632 18.419L11.1994 16.5385L10.1341 17.5945L11.9979 19.475L13.0632 18.419ZM18.9369 18.419C18.1813 19.1814 17.6585 19.7074 17.2146 20.0638C16.7826 20.4107 16.4989 20.5349 16.2395 20.568L16.4291 22.0559C17.0756 21.9735 17.6163 21.6651 18.1539 21.2333C18.6797 20.8111 19.2716 20.2123 20.0023 19.475L18.9369 18.419ZM11.9979 19.475C12.7286 20.2123 13.3205 20.8111 13.8463 21.2333C14.3839 21.6651 14.9246 21.9735 15.571 22.0559L15.7607 20.568C15.5013 20.5349 15.2175 20.4107 14.7855 20.0638C14.3417 19.7074 13.8188 19.1814 13.0632 18.419L11.9979 19.475ZM16.2395 20.568C16.16 20.5781 16.08 20.5832 16.0001 20.5832L16.0001 22.0832C16.1434 22.0832 16.2867 22.0741 16.4291 22.0559L16.2395 20.568ZM16.0001 20.5832C15.9201 20.5832 15.8402 20.5781 15.7607 20.568L15.571 22.0559C15.7135 22.0741 15.8568 22.0832 16.0001 22.0832L16.0001 20.5832ZM15.2501 20.2665V21.3332H16.7501V20.2665H15.2501Z" fill="#2D264B"/>
</svg>
