<svg width="22" height="22" viewBox="0 0 22 22" fill="none" xmlns="http://www.w3.org/2000/svg">
<path fill-rule="evenodd" clip-rule="evenodd" d="M11 21.5C16.799 21.5 21.5 16.799 21.5 11C21.5 5.20101 16.799 0.5 11 0.5C5.20101 0.5 0.5 5.20101 0.5 11C0.5 16.799 5.20101 21.5 11 21.5ZM15.8784 8.70651C15.8784 12.21 13.35 16.25 8.72739 16.25V16.2479C7.36172 16.2498 6.02438 15.8371 4.87501 15.0591C5.53304 15.1428 6.20027 15.0888 6.83852 14.9003C7.47676 14.7117 8.0735 14.3923 8.5946 13.9602C8.07013 13.9497 7.56187 13.7666 7.14087 13.4365C6.71987 13.1064 6.40718 12.6458 6.24652 12.119C6.62312 12.1956 7.01135 12.18 7.38136 12.0735C6.81258 11.9523 6.30106 11.6273 5.93355 11.1536C5.56604 10.6799 5.36517 10.0867 5.36501 9.47461V9.44101C5.71446 9.64666 6.10574 9.76049 6.50573 9.77285C5.9736 9.39802 5.5969 8.82333 5.45234 8.16581C5.30778 7.50829 5.40621 6.81736 5.72761 6.23371C6.35867 7.05266 7.14593 7.72249 8.03829 8.1997C8.93065 8.67691 9.90817 8.95084 10.9074 9.00372C10.7823 8.43535 10.8383 7.83934 11.0667 7.30793C11.2951 6.77651 11.6832 6.33932 12.1709 6.064C12.6586 5.78868 13.2187 5.69059 13.7645 5.7849C14.3104 5.87921 14.8115 6.16066 15.1905 6.58571C15.7533 6.46867 16.2931 6.25103 16.7864 5.94218C16.5988 6.55615 16.2062 7.0773 15.6815 7.4086C16.1797 7.34659 16.6663 7.20598 17.125 6.99147C16.7876 7.5238 16.363 7.9885 15.8711 8.36381C15.8784 8.47753 15.8784 8.59176 15.8784 8.70651Z" fill="#FFA703"/>
</svg>
