<svg width="34" height="40" viewBox="0 0 34 40" fill="none" xmlns="http://www.w3.org/2000/svg">
<g clip-path="url(#clip0_18_20205)">
<path d="M31.981 13.4V24.1533C32.7356 25.1614 33.4066 26.2037 34 27.2356V11.793L31.981 13.3995V13.4Z" fill="url(#paint0_linear_18_20205)"/>
<path d="M24.8289 19.3456C24.1919 18.8991 23.5985 18.5167 23.0746 18.1979L31.4297 11.7935L31.4515 11.7764L31.981 11.3703L32.7468 10.7832L33.8692 9.92288L29.613 7.41929L28.5485 6.79301L28.1006 6.52947L27.0346 5.90216L23.7537 3.97215L21.7139 2.77229L17.0003 0L9.75689 4.26049L8.57925 4.95343L4.01017 7.64097L2.83253 8.33391L0 9.99987V30.0001L2.83608 31.6681L4.01372 32.3611L8.57874 35.0461C8.57874 34.2544 8.57874 33.4623 8.57874 32.6706C8.57874 32.2087 8.57874 31.7467 8.57874 31.2847C8.57874 29.9526 8.58026 28.621 8.58127 27.2888C8.58178 26.7338 8.58127 26.1789 8.58229 25.6244C8.58229 25.2544 8.58279 24.8844 8.58279 24.5145L8.57823 24.517V23.4443V21.0808C8.97078 20.7805 9.36333 20.4798 9.75587 20.1801C14.8524 16.286 19.9464 12.3887 25.0399 8.48997L20.5514 5.84997L8.57772 14.9037V8.71372L4.00916 11.4013C4.00967 17.1339 4.01119 22.8666 4.01169 28.5993C4.01169 29.0612 4.01169 29.5232 4.01169 29.9851L2.83405 29.2922L2.01751 28.8116V11.1878L2.83101 10.7093L4.00865 10.0164L8.57722 7.32886L9.75537 6.63592L17.0003 2.37543L20.129 4.21605L21.1935 4.84233L25.5024 7.37692L26.5695 8.00475L27.0168 8.26777L27.8582 8.76281C23.2389 12.2983 15.8399 17.9219 10.0404 22.3338V28.1895L17.8371 22.2129L18.4117 21.7721L18.8281 21.4528C20.9227 22.3803 22.7465 23.6944 24.2467 25.04H24.2451C24.2527 25.0467 24.2598 25.0529 24.2675 25.0591C27.2755 27.7621 28.9846 30.5747 28.9846 30.5747L27.9683 31.1726L17.0003 37.6246L10.7185 33.9294L9.75739 33.3641L9.73508 33.3506L9.72494 34.889L9.75739 34.8574C9.75739 35.1515 9.75739 35.445 9.75739 35.739L17.0008 40L28.9136 32.9925L29.9351 32.3916L34.0005 30.0001V29.7609C33.7393 29.2121 33.4583 28.6819 33.1622 28.1704C30.8033 24.0964 27.4464 21.1794 24.8294 19.3456H24.8289Z" fill="url(#paint1_linear_18_20205)"/>
</g>
<defs>
<linearGradient id="paint0_linear_18_20205" x1="32.9902" y1="11.793" x2="32.9902" y2="27.2351" gradientUnits="userSpaceOnUse">
<stop stop-color="#AC5A26"/>
<stop offset="0.07" stop-color="#B76E2F"/>
<stop offset="0.08" stop-color="#BB7533"/>
<stop offset="0.15" stop-color="#BF7D39"/>
<stop offset="0.25" stop-color="#CD934B"/>
<stop offset="0.38" stop-color="#E3B768"/>
<stop offset="0.46" stop-color="#F5D580"/>
<stop offset="0.82" stop-color="#BB7533"/>
<stop offset="0.93" stop-color="#A65D29"/>
<stop offset="1" stop-color="#984D23"/>
</linearGradient>
<linearGradient id="paint1_linear_18_20205" x1="16.9997" y1="0" x2="16.9997" y2="40" gradientUnits="userSpaceOnUse">
<stop stop-color="#AC5A26"/>
<stop offset="0.07" stop-color="#B76E2F"/>
<stop offset="0.08" stop-color="#BB7533"/>
<stop offset="0.15" stop-color="#BF7D39"/>
<stop offset="0.25" stop-color="#CD934B"/>
<stop offset="0.38" stop-color="#E3B768"/>
<stop offset="0.46" stop-color="#F5D580"/>
<stop offset="0.82" stop-color="#BB7533"/>
<stop offset="0.93" stop-color="#A65D29"/>
<stop offset="1" stop-color="#984D23"/>
</linearGradient>
<clipPath id="clip0_18_20205">
<rect width="34" height="40" fill="white"/>
</clipPath>
</defs>
</svg>
