<svg width="16" height="16" viewBox="0 0 16 16" fill="none" xmlns="http://www.w3.org/2000/svg">
<path d="M2.66675 7.24984C2.25253 7.24984 1.91675 7.58562 1.91675 7.99984C1.91675 8.41405 2.25253 8.74984 2.66675 8.74984L2.66675 7.24984ZM13.3334 8.74984C13.7476 8.74984 14.0834 8.41405 14.0834 7.99984C14.0834 7.58562 13.7476 7.24984 13.3334 7.24984L13.3334 8.74984ZM11.1947 4.13381C10.9005 3.84223 10.4256 3.84435 10.1341 4.13855C9.84247 4.43274 9.84459 4.90761 10.1388 5.19919L11.1947 4.13381ZM11.8421 5.83138L11.3141 6.36407L11.3141 6.36407L11.8421 5.83138ZM11.8421 10.1683L12.37 10.701L12.37 10.701L11.8421 10.1683ZM10.1388 10.8005C9.84459 11.0921 9.84247 11.5669 10.1341 11.8611C10.4256 12.1553 10.9005 12.1574 11.1947 11.8659L10.1388 10.8005ZM13.3202 7.79095L14.0641 7.69612L14.0641 7.69612L13.3202 7.79095ZM13.3202 8.20873L14.0641 8.30355L14.0641 8.30355L13.3202 8.20873ZM2.66675 8.74984L13.3334 8.74984L13.3334 7.24984L2.66675 7.24984L2.66675 8.74984ZM10.1388 5.19919L11.3141 6.36407L12.37 5.29868L11.1947 4.13381L10.1388 5.19919ZM11.3141 9.63561L10.1388 10.8005L11.1947 11.8659L12.37 10.701L11.3141 9.63561ZM11.3141 6.36407C11.7953 6.84096 12.1103 7.15482 12.3208 7.41685C12.5217 7.66704 12.5648 7.79623 12.5762 7.88578L14.0641 7.69612C14.0034 7.21954 13.7761 6.83342 13.4903 6.4776C13.214 6.13361 12.8261 5.75075 12.37 5.29868L11.3141 6.36407ZM12.37 10.701C12.8261 10.2489 13.214 9.86606 13.4903 9.52207C13.7761 9.16625 14.0034 8.78014 14.0641 8.30355L12.5762 8.1139C12.5648 8.20344 12.5217 8.33263 12.3208 8.58283C12.1103 8.84485 11.7953 9.15871 11.3141 9.63561L12.37 10.701ZM12.5762 7.88578C12.5858 7.96152 12.5858 8.03815 12.5762 8.1139L14.0641 8.30355C14.0898 8.10188 14.0898 7.89779 14.0641 7.69612L12.5762 7.88578Z" fill="#FFA703"/>
</svg>
