<svg width="18" height="18" viewBox="0 0 18 18" fill="none" xmlns="http://www.w3.org/2000/svg">
<path d="M3 8.25C2.58579 8.25 2.25 8.58579 2.25 9C2.25 9.41421 2.58579 9.75 3 9.75L3 8.25ZM15 9.75C15.4142 9.75 15.75 9.41421 15.75 9C15.75 8.58579 15.4142 8.25 15 8.25L15 9.75ZM12.528 4.71731C12.2338 4.42573 11.7589 4.42784 11.4673 4.72204C11.1757 5.01624 11.1778 5.49111 11.472 5.78269L12.528 4.71731ZM13.3222 6.56048L12.7943 7.09317L12.7943 7.09317L13.3222 6.56048ZM13.3222 11.4395L13.8502 11.9722L13.8502 11.9722L13.3222 11.4395ZM11.472 12.2173C11.1778 12.5089 11.1757 12.9838 11.4673 13.278C11.7589 13.5722 12.2338 13.5743 12.528 13.2827L11.472 12.2173ZM14.9851 8.765L15.7291 8.67017L15.7291 8.67017L14.9851 8.765ZM14.9851 9.235L15.7291 9.32983L15.7291 9.32983L14.9851 9.235ZM3 9.75L15 9.75L15 8.25L3 8.25L3 9.75ZM11.472 5.78269L12.7943 7.09317L13.8502 6.02779L12.528 4.71731L11.472 5.78269ZM12.7943 10.9068L11.472 12.2173L12.528 13.2827L13.8502 11.9722L12.7943 10.9068ZM12.7943 7.09317C13.334 7.62813 13.693 7.98553 13.9339 8.28543C14.1652 8.5735 14.2252 8.7349 14.2411 8.85983L15.7291 8.67017C15.6638 8.15821 15.4196 7.73989 15.1034 7.34619C14.7967 6.96432 14.3649 6.53792 13.8502 6.02779L12.7943 7.09317ZM13.8502 11.9722C14.3649 11.4621 14.7967 11.0357 15.1034 10.6538C15.4196 10.2601 15.6638 9.84179 15.7291 9.32983L14.2411 9.14017C14.2252 9.2651 14.1652 9.4265 13.9339 9.71457C13.693 10.0145 13.334 10.3719 12.7943 10.9068L13.8502 11.9722ZM14.2411 8.85983C14.253 8.95291 14.253 9.04709 14.2411 9.14017L15.7291 9.32983C15.757 9.11082 15.757 8.88918 15.7291 8.67017L14.2411 8.85983Z" fill="#1C1C1C"/>
</svg>
