<svg width="48" height="48" viewBox="0 0 48 48" fill="none" xmlns="http://www.w3.org/2000/svg">
<path fill-rule="evenodd" clip-rule="evenodd" d="M24 45C35.598 45 45 35.598 45 24C45 12.402 35.598 3 24 3C12.402 3 3 12.402 3 24C3 35.598 12.402 45 24 45ZM33.7569 19.413C33.7569 26.42 28.7001 34.5 19.4548 34.5V34.4959C16.7234 34.4996 14.0488 33.6742 11.75 32.1182C13.0661 32.2856 14.4005 32.1777 15.677 31.8005C16.9535 31.4234 18.147 30.7845 19.1892 29.9204C18.1403 29.8994 17.1237 29.5332 16.2817 28.873C15.4397 28.2128 14.8144 27.2915 14.493 26.238C15.2462 26.3911 16.0227 26.36 16.7627 26.1471C15.6252 25.9046 14.6021 25.2546 13.8671 24.3072C13.1321 23.3599 12.7303 22.1734 12.73 20.9492V20.882C13.4289 21.2933 14.2115 21.521 15.0115 21.5457C13.9472 20.796 13.1938 19.6467 12.9047 18.3316C12.6156 17.0166 12.8124 15.6347 13.4552 14.4674C14.7173 16.1053 16.2919 17.445 18.0766 18.3994C19.8613 19.3538 21.8163 19.9017 23.8148 20.0074C23.5647 18.8707 23.6767 17.6787 24.1335 16.6159C24.5903 15.553 25.3664 14.6786 26.3418 14.128C27.3171 13.5774 28.4373 13.3812 29.529 13.5698C30.6208 13.7584 31.6231 14.3213 32.381 15.1714C33.5067 14.9373 34.5861 14.5021 35.5728 13.8844C35.1977 15.1123 34.4123 16.1546 33.3629 16.8172C34.3595 16.6932 35.3327 16.412 36.25 15.9829C35.5751 17.0476 34.7259 17.977 33.7422 18.7276C33.7569 18.9551 33.7569 19.1835 33.7569 19.413Z" fill="#FFA703"/>
</svg>
