<svg width="48" height="48" viewBox="0 0 48 48" fill="none" xmlns="http://www.w3.org/2000/svg">
<path fill-rule="evenodd" clip-rule="evenodd" d="M24 45C35.598 45 45 35.598 45 24C45 12.402 35.598 3 24 3C12.402 3 3 12.402 3 24C3 35.598 12.402 45 24 45ZM9 23.6104C9 15.5382 15.7125 9 24 9C32.2875 9 39 15.5382 39 23.6104C38.9992 26.6717 38.0128 29.6556 36.1797 32.1422C34.3466 34.6289 31.759 36.4929 28.7812 37.4721C28.0312 37.6182 27.75 37.1616 27.75 36.7781C27.75 36.6132 27.7521 36.3279 27.7549 35.948C27.7604 35.1918 27.7688 34.061 27.7688 32.7602C27.7688 31.3905 27.3 30.5139 26.7563 30.0573C30.0938 29.692 33.6 28.4501 33.6 22.8434C33.6 21.2362 33.0187 19.9396 32.0625 18.9168C32.2125 18.5516 32.7375 17.054 31.9125 15.0451C31.9125 15.0451 30.6562 14.6433 27.7875 16.5426C26.5875 16.2139 25.3125 16.0495 24.0375 16.0495C22.7625 16.0495 21.4875 16.2139 20.2875 16.5426C17.4188 14.6615 16.1625 15.0451 16.1625 15.0451C15.3375 17.054 15.8625 18.5516 16.0125 18.9168C15.0563 19.9396 14.475 21.2545 14.475 22.8434C14.475 28.4319 17.9625 29.692 21.3 30.0573C20.8687 30.4226 20.475 31.0618 20.3438 32.0114C19.4813 32.395 17.325 33.0159 15.975 30.8061C15.6938 30.3678 14.85 29.2902 13.6687 29.3085C12.4125 29.3268 13.1625 30.0025 13.6875 30.2764C14.325 30.6234 15.0563 31.9201 15.225 32.3402C15.525 33.162 16.5 34.7326 20.2688 34.0569C20.2688 34.8553 20.2767 35.6227 20.2823 36.1559C20.2852 36.4399 20.2875 36.6575 20.2875 36.7781C20.2875 37.1616 20.0062 37.5999 19.2562 37.4721C13.2937 35.5362 9 30.0756 9 23.6104Z" fill="#FFA703"/>
</svg>
