<svg width="48" height="48" viewBox="0 0 48 48" fill="none" xmlns="http://www.w3.org/2000/svg">
<path fill-rule="evenodd" clip-rule="evenodd" d="M24 44.9995C35.598 44.9995 45 35.5975 45 23.9995C45 12.4015 35.598 2.99951 24 2.99951C12.402 2.99951 3 12.4015 3 23.9995C3 35.5975 12.402 44.9995 24 44.9995ZM24 10C31.732 10 38 16.3063 38 24.0856C38 31.116 32.8804 36.9433 26.1875 38V28.1572H29.4496L30.0703 24.0856H26.1875V21.4445C26.1875 20.3295 26.73 19.2436 28.4691 19.2436H30.2344V15.7773C30.2344 15.7773 28.6317 15.5022 27.1005 15.5022C23.9026 15.5022 21.8125 17.4521 21.8125 20.9823V24.0856H18.2578V28.1572H21.8125V38C15.1196 36.9433 9.99998 31.116 9.99998 24.0856C9.99998 16.3063 16.268 10 24 10Z" fill="#FFA703"/>
</svg>
