<?xml version="1.0" encoding="UTF-8"?>
<!DOCTYPE svg PUBLIC "-//W3C//DTD SVG 1.1//EN" "http://www.w3.org/Graphics/SVG/1.1/DTD/svg11.dtd">
<svg xmlns="http://www.w3.org/2000/svg" version="1.1" width="48px" height="48px" style="shape-rendering:geometricPrecision; text-rendering:geometricPrecision; image-rendering:optimizeQuality; fill-rule:evenodd; clip-rule:evenodd" xmlns:xlink="http://www.w3.org/1999/xlink">
<g><path style="opacity:0.929" fill="#fdac04" d="M 16.5,2.5 C 36.9814,0.814181 46.1481,10.1475 44,30.5C 36.4419,45.0723 25.2752,48.5723 10.5,41C 1.62627,32.0024 0.12627,21.8357 6,10.5C 8.93997,6.96319 12.44,4.29652 16.5,2.5 Z M 31.5,17.5 C 32.7494,20.7373 33.7494,24.0706 34.5,27.5C 33.8075,28.5178 33.1408,29.5178 32.5,30.5C 31.8333,30.5 31.1667,30.5 30.5,30.5C 30.5299,29.5028 30.0299,28.8361 29,28.5C 25.1718,29.6919 21.3385,29.6919 17.5,28.5C 17.5,29.1667 17.5,29.8333 17.5,30.5C 17.1667,30.5 16.8333,30.5 16.5,30.5C 14.8684,30.1753 13.8684,29.1753 13.5,27.5C 14.1556,25.5466 14.4889,23.5466 14.5,21.5C 15.6737,20.4863 16.3404,19.153 16.5,17.5C 21.5,17.5 26.5,17.5 31.5,17.5 Z"/></g>
<g><path style="opacity:0.616" fill="#f9ba3f" d="M 31.5,17.5 C 26.5,17.5 21.5,17.5 16.5,17.5C 16.9623,16.1201 17.9623,15.4534 19.5,15.5C 22.5,16.8333 25.5,16.8333 28.5,15.5C 30.0377,15.4534 31.0377,16.1201 31.5,17.5 Z"/></g>
<g><path style="opacity:0.961" fill="#febd53" d="M 16.5,17.5 C 16.3404,19.153 15.6737,20.4863 14.5,21.5C 14.3398,19.8008 14.5065,18.1341 15,16.5C 15.3826,17.056 15.8826,17.3893 16.5,17.5 Z"/></g>
<g><path style="opacity:0.643" fill="#f6bc56" d="M 20.5,27.5 C 22.9433,23.9341 21.9433,22.9341 17.5,24.5C 19.7534,20.4471 21.7534,20.6138 23.5,25C 23.2517,26.7491 22.2517,27.5824 20.5,27.5 Z"/></g>
<g><path style="opacity:0.678" fill="#f7bc55" d="M 30.5,24.5 C 26.0567,22.9341 25.0567,23.9341 27.5,27.5C 23.5847,25.8017 23.5847,23.8017 27.5,21.5C 28.8549,22.1882 29.8549,23.1882 30.5,24.5 Z"/></g>
<g><path style="opacity:1" fill="#fda60d" d="M 20.5,27.5 C 20.1667,27.5 19.8333,27.5 19.5,27.5C 19.5,26.1667 18.8333,25.5 17.5,25.5C 17.5,25.1667 17.5,24.8333 17.5,24.5C 21.9433,22.9341 22.9433,23.9341 20.5,27.5 Z"/></g>
<g><path style="opacity:1" fill="#fca713" d="M 30.5,24.5 C 30.5,24.8333 30.5,25.1667 30.5,25.5C 29.1667,25.5 28.5,26.1667 28.5,27.5C 28.1667,27.5 27.8333,27.5 27.5,27.5C 25.0567,23.9341 26.0567,22.9341 30.5,24.5 Z"/></g>
<g><path style="opacity:0.588" fill="#f1c57a" d="M 17.5,25.5 C 18.8333,25.5 19.5,26.1667 19.5,27.5C 18.5,27.1667 17.8333,26.5 17.5,25.5 Z"/></g>
<g><path style="opacity:0.078" fill="#f7d391" d="M 30.5,25.5 C 30.1667,26.5 29.5,27.1667 28.5,27.5C 28.5,26.1667 29.1667,25.5 30.5,25.5 Z"/></g>
<g><path style="opacity:0.737" fill="#fabb46" d="M 17.5,28.5 C 21.3385,29.6919 25.1718,29.6919 29,28.5C 30.0299,28.8361 30.5299,29.5028 30.5,30.5C 31.1667,30.5 31.8333,30.5 32.5,30.5C 32.1344,31.6946 31.301,32.3613 30,32.5C 26,29.8333 22,29.8333 18,32.5C 16.9701,32.1639 16.4701,31.4972 16.5,30.5C 16.8333,30.5 17.1667,30.5 17.5,30.5C 17.5,29.8333 17.5,29.1667 17.5,28.5 Z"/></g>
</svg>
