<?xml version="1.0" encoding="UTF-8"?>
<!DOCTYPE svg PUBLIC "-//W3C//DTD SVG 1.1//EN" "http://www.w3.org/Graphics/SVG/1.1/DTD/svg11.dtd">
<svg xmlns="http://www.w3.org/2000/svg" version="1.1" width="48px" height="48px" style="shape-rendering:geometricPrecision; text-rendering:geometricPrecision; image-rendering:optimizeQuality; fill-rule:evenodd; clip-rule:evenodd" xmlns:xlink="http://www.w3.org/1999/xlink">
<g><path style="opacity:0.795" fill="#fea702" d="M 16.5,2.5 C 37.4982,0.997354 46.6648,10.664 44,31.5C 35.9067,45.1055 24.7401,48.2722 10.5,41C 2.44757,33.3748 0.280907,24.2081 4,13.5C 7.1476,8.50941 11.3143,4.84275 16.5,2.5 Z M 13.5,15.5 C 23.0103,15.1976 26.177,19.5309 23,28.5C 17.5586,32.9258 12.8919,32.2591 9,26.5C 7.77575,21.626 9.27575,17.9593 13.5,15.5 Z M 29.5,16.5 C 30.8221,16.33 31.9887,16.6634 33,17.5C 35,21.5 35,25.5 33,29.5C 31.6667,30.8333 30.3333,30.8333 29,29.5C 26.9323,25.0563 27.099,20.723 29.5,16.5 Z"/></g>
</svg>
