<svg width="22" height="22" viewBox="0 0 22 22" fill="none" xmlns="http://www.w3.org/2000/svg">
<path fill-rule="evenodd" clip-rule="evenodd" d="M11 21.5C16.799 21.5 21.5 16.799 21.5 11C21.5 5.20101 16.799 0.5 11 0.5C5.20101 0.5 0.5 5.20101 0.5 11C0.5 16.799 5.20101 21.5 11 21.5ZM11 4C14.866 4 18 7.15316 18 11.0428C18 14.558 15.4402 17.4717 12.0938 18V13.0786H13.7248L14.0352 11.0428H12.0938V9.72226C12.0938 9.16475 12.365 8.62182 13.2345 8.62182H14.1172V6.88864C14.1172 6.88864 13.3159 6.75109 12.5503 6.75109C10.9513 6.75109 9.90625 7.72607 9.90625 9.49117V11.0428H8.12891V13.0786H9.90625V18C6.55979 17.4717 4 14.558 4 11.0428C4 7.15316 7.134 4 11 4Z" fill="#FFA703"/>
</svg>
